<?xml version="1.0" encoding="utf-8"?>
<!-- Generator: Adobe Illustrator 24.1.2, SVG Export Plug-In . SVG Version: 6.00 Build 0)  -->
<svg version="1.1" id="Layer_1" xmlns="http://www.w3.org/2000/svg" xmlns:xlink="http://www.w3.org/1999/xlink" x="0px" y="0px"
	 viewBox="0 0 179.8 179.8" style="enable-background:new 0 0 179.8 179.8;" xml:space="preserve">
<style type="text/css">
	.st0{fill:url(#SVGID_1_);}
	.st1{fill:#FFFFFF;stroke:#000000;stroke-miterlimit:10;}
</style>
<linearGradient id="SVGID_1_" gradientUnits="userSpaceOnUse" x1="23.8008" y1="54.615" x2="148.2464" y2="135.6269" gradientTransform="matrix(0.9998 1.907197e-02 -1.907197e-02 0.9998 1.7571 -1.739)">
	<stop  offset="0.1263" style="stop-color:#53120F"/>
	<stop  offset="0.2435" style="stop-color:#5C1310"/>
	<stop  offset="0.4352" style="stop-color:#751714"/>
	<stop  offset="0.6775" style="stop-color:#9C1C1A"/>
	<stop  offset="0.9584" style="stop-color:#D32422"/>
	<stop  offset="1" style="stop-color:#DC2523"/>
</linearGradient>
<circle class="st0" cx="87.5" cy="96.1" r="69.5"/>
<g id="H">
	<g id="H_1_">
		<path class="st1" d="M137,54c-11.8,1.1-12.9,1.8-12.9,13.8v57c0,11.9,1.3,12.4,12.9,13.6v4H99v-4c11.8-1.4,12.9-1.7,12.9-13.6
			V96.3H63.3v28.4c0,11.8,1.1,12.2,12.8,13.6v4H38.2v-4c11.5-1.3,12.8-1.7,12.8-13.6v-57c0-11.9-1.3-12.6-12.8-13.8v-4h37.9v4
			c-11.4,1-12.8,2-12.8,13.8v22.6h48.6V67.8C111.9,56,110.3,55,99,54v-4H137V54z"/>
	</g>
</g>
</svg>
