<svg xmlns="http://www.w3.org/2000/svg" xmlns:xlink="http://www.w3.org/1999/xlink" viewBox="0 0 303.53 612"><defs><style>.cls-1{fill:url(#linear-gradient);}.cls-2{fill:url(#linear-gradient-2);}.cls-3,.cls-4,.cls-5,.cls-6{fill:#fff;}.cls-3{stroke:#231f20;stroke-miterlimit:10;stroke-width:0.64px;}.cls-5{font-size:12.11px;}.cls-5,.cls-6{font-family:BaskOldFace, Baskerville Old Face;}.cls-6{font-size:12px;}</style><linearGradient id="linear-gradient" x1="151.76" y1="612" x2="151.76" gradientUnits="userSpaceOnUse"><stop offset="0" stop-color="#14162b"/><stop offset="1" stop-color="#282a66"/></linearGradient><linearGradient id="linear-gradient-2" x1="78.81" y1="244.33" x2="220.83" y2="329.71" gradientUnits="userSpaceOnUse"><stop offset="0" stop-color="#14162b"/><stop offset="0.29" stop-color="#181a37"/><stop offset="0.8" stop-color="#232558"/><stop offset="1" stop-color="#282a66"/></linearGradient></defs><g id="Layer_2" data-name="Layer 2"><g id="Layer_1-2" data-name="Layer 1"><rect class="cls-1" width="303.53" height="612"/><image width="2272" height="2576" transform="translate(50.85 58.28) scale(0.09)" xlink:href="../Pictures/DSC_2247.png"/><circle class="cls-2" cx="149.97" cy="287.11" r="82.84"/><path class="cls-3" d="M162.31,235.62c-26.22,10.73-48.7,5.45-51.42-7-.51-2.21,6-11.58,7.66-3.23,2.56,12.26,21.8,17.19,45.47,7.66,7.15-7.83,16.34-12.94,19.75-12.26,3.06.51-4.09,7-17.37,13.45-7.32,9.54-20.94,29.8-30.31,50.4,6.64-1.36,15.15-2.38,22.14-3.92,17.19-28.6,52.1-69,72.7-63,13.63,3.92,2,47-65.55,64-14.14,23.66-23.84,48.18-21.12,61.64,2.39,11.57,21.29,8.51,64.2-37.12,1.53-1.54,2-.34-.17,2-45,49.55-66.24,50.74-71.35,39.67-4.77-9.87,5.62-40.35,19.41-64.19-13.45,2.21-17.71,3.24-21.79,4.09C98.8,356.52,66.11,365.2,56.4,350.39,45,332.85,69.17,300.67,127.24,286.53,137.62,265.93,150.39,245.84,162.31,235.62ZM58.1,348.68c8.18,12.43,32.87,6.3,67.43-58.74C68,304.75,49.08,335.06,58.1,348.68Zm168.58-129.4c-14.65,0-40.36,28.6-59.26,59.25C231.78,261.67,243.19,219.28,226.68,219.28Z"/><path class="cls-4" d="M41.24,30.73l0-5.65h.31A12.45,12.45,0,0,0,43,28.49a4.38,4.38,0,0,0,3.75,2.29,3.49,3.49,0,0,0,2.6-1.05,3.67,3.67,0,0,0,1-2.67,4.77,4.77,0,0,0-.22-1.42,4.41,4.41,0,0,0-.61-1.25,4.9,4.9,0,0,0-1.12-1,21.44,21.44,0,0,0-2.19-1.25,20,20,0,0,1-2-1.1,6.05,6.05,0,0,1-1.12-.92A4.49,4.49,0,0,1,41.91,17a5.35,5.35,0,0,1,.46-2.19A5.28,5.28,0,0,1,43.65,13a4.89,4.89,0,0,1,3.43-1.34,5.56,5.56,0,0,1,1.19.13,10.3,10.3,0,0,1,1.46.52c.46.18.77.3.93.35a1.53,1.53,0,0,0,.44.07c.32,0,.53-.23.64-.7h.32l.09,5.43h-.31c-.25-.86-.46-1.53-.64-2a7.61,7.61,0,0,0-.63-1.28,5,5,0,0,0-1.48-1.58,3.36,3.36,0,0,0-1.85-.51,3,3,0,0,0-2.42,1,3.09,3.09,0,0,0-.58,1A3.33,3.33,0,0,0,44,15.26C44,16.79,45,18,47,18.94l1.93.93A8.82,8.82,0,0,1,52.1,22.2a5.2,5.2,0,0,1,1.12,3.32,5.88,5.88,0,0,1-.51,2.4,5.34,5.34,0,0,1-2.13,2.46,6.31,6.31,0,0,1-3.35.87,8.57,8.57,0,0,1-3.39-.7l-1-.43a1.44,1.44,0,0,0-.37-.05.91.91,0,0,0-.91.66Z"/><path class="cls-4" d="M57.65,23.34c0,.45,0,.77,0,1a8,8,0,0,0,.34,2.33,5.63,5.63,0,0,0,1,1.88,4.39,4.39,0,0,0,1.52,1.21,4.34,4.34,0,0,0,1.9.44,4.08,4.08,0,0,0,1.4-.25,3,3,0,0,0,1.1-.69,3.85,3.85,0,0,0,.84-1.53l.29.1a3.8,3.8,0,0,1-1.53,2.41A5.28,5.28,0,0,1,61.3,31a7,7,0,0,1-2.88-.54,5,5,0,0,1-2-1.64,6.09,6.09,0,0,1-1.16-3.8,5.83,5.83,0,0,1,2.2-4.83A5.67,5.67,0,0,1,61.07,19a5.16,5.16,0,0,1,2,.39,4.28,4.28,0,0,1,1.58,1.13,4.23,4.23,0,0,1,1,2.87Zm6-.53a5.18,5.18,0,0,0-.5-2.11,2.86,2.86,0,0,0-1-1.06,2.39,2.39,0,0,0-1.31-.39,2.67,2.67,0,0,0-2,1,4.59,4.59,0,0,0-1,2.55Z"/><path class="cls-4" d="M79.08,29.45l.23.14A2.11,2.11,0,0,1,77.06,31a2.64,2.64,0,0,1-1.62-.48,3.84,3.84,0,0,1-.88-1.1,8.61,8.61,0,0,1-1.38,1.08,4.17,4.17,0,0,1-2.07.5,3.63,3.63,0,0,1-2.39-.73,2.38,2.38,0,0,1-.88-1.95,2.66,2.66,0,0,1,.72-1.9,3.18,3.18,0,0,1,1-.68,8.57,8.57,0,0,1,1.54-.51c.8-.2,1.38-.37,1.76-.51a3.67,3.67,0,0,0,1-.49,1.68,1.68,0,0,0,.6-.74,3.35,3.35,0,0,0,.17-1.18,3.73,3.73,0,0,0-.6-2.34,2,2,0,0,0-.71-.54,2,2,0,0,0-.89-.21,1.78,1.78,0,0,0-1,.29,1.71,1.71,0,0,0-.66.79l-.34.8a1,1,0,0,1-1,.64,1.06,1.06,0,0,1-.78-.31,1,1,0,0,1-.31-.77c0-.47.33-.86,1-1.18a5.76,5.76,0,0,1,1.32-.4,7.35,7.35,0,0,1,3.31.06,6.14,6.14,0,0,1,1.53.56A2.22,2.22,0,0,1,76.51,21a6.28,6.28,0,0,1,.11,1.38v5.06a9.23,9.23,0,0,0,.11,1.75,1.09,1.09,0,0,0,1.12,1,1.24,1.24,0,0,0,.66-.15A2.28,2.28,0,0,0,79.08,29.45Zm-4.53-5.38a9.14,9.14,0,0,1-1.62,1.08,15.2,15.2,0,0,0-1.38.8,3.9,3.9,0,0,0-.69.66,2.83,2.83,0,0,0-.64,1.85,2.25,2.25,0,0,0,.5,1.49,1.57,1.57,0,0,0,1.26.58,2.15,2.15,0,0,0,1.26-.41A2.6,2.6,0,0,0,74.13,29a6.56,6.56,0,0,0,.42-2.65Z"/><path class="cls-4" d="M83.22,19a6.31,6.31,0,0,1,.2,1.49v.22a5.48,5.48,0,0,1,4-1.71,4.48,4.48,0,0,1,2.82.82,2.72,2.72,0,0,1,1,2.29v5.8a6.25,6.25,0,0,0,.11,1.36,1.41,1.41,0,0,0,.43.71,2.68,2.68,0,0,0,1.4.56v.29h-6v-.29a3.44,3.44,0,0,0,1.17-.3,1.47,1.47,0,0,0,.58-.68,3,3,0,0,0,.21-1c0-.42.06-1,.06-1.82v-2.9a16.32,16.32,0,0,0-.1-2.18,2.68,2.68,0,0,0-.39-1.12,2.09,2.09,0,0,0-.9-.75,3.05,3.05,0,0,0-1.3-.27,3.42,3.42,0,0,0-1.42.31,2.59,2.59,0,0,0-1,.81,2.82,2.82,0,0,0-.54,1.24,13.57,13.57,0,0,0-.13,2.29v3.69a6.25,6.25,0,0,0,.11,1.36,1.39,1.39,0,0,0,.42.71,2.76,2.76,0,0,0,1.41.56v.29h-6v-.29a3.51,3.51,0,0,0,1.17-.3,1.42,1.42,0,0,0,.58-.68,2.85,2.85,0,0,0,.21-.94q.06-.63.06-1.83V23.38a17.72,17.72,0,0,0-.07-2,2,2,0,0,0-.3-.92,1.4,1.4,0,0,0-.56-.55,2.57,2.57,0,0,0-.94-.21v-.29Z"/><path class="cls-4" d="M107.08,20.8h9.71V16.41a10.21,10.21,0,0,0-.16-2.08,2.28,2.28,0,0,0-.58-1.11,2.31,2.31,0,0,0-.87-.57,4.17,4.17,0,0,0-1.28-.22v-.32h8.74v.32a4.08,4.08,0,0,0-1.26.22,2.16,2.16,0,0,0-.87.57,2.2,2.2,0,0,0-.58,1.11,9.71,9.71,0,0,0-.16,2.08V26.49a9.44,9.44,0,0,0,.16,2.06,2.27,2.27,0,0,0,1.45,1.69,4.37,4.37,0,0,0,1.26.23v.31H113.9v-.31a4.45,4.45,0,0,0,1.28-.23,2.43,2.43,0,0,0,.87-.57,2.28,2.28,0,0,0,.58-1.11,10.09,10.09,0,0,0,.16-2.07v-5h-9.71v5a10.4,10.4,0,0,0,.15,2.07,2.29,2.29,0,0,0,.59,1.11,2.2,2.2,0,0,0,.85.57,4.45,4.45,0,0,0,1.28.23v.31h-8.74v-.31a4.52,4.52,0,0,0,1.28-.23,2.2,2.2,0,0,0,.85-.57,2.14,2.14,0,0,0,.59-1.11,10.26,10.26,0,0,0,.15-2.07V16.41a10.38,10.38,0,0,0-.15-2.08,2.14,2.14,0,0,0-.59-1.11,2.06,2.06,0,0,0-.86-.57,4.21,4.21,0,0,0-1.27-.22v-.32H110v.32a4.21,4.21,0,0,0-1.27.22,2.2,2.2,0,0,0-.86.57,2.29,2.29,0,0,0-.59,1.11,10.58,10.58,0,0,0-.15,2.08Z"/><path class="cls-4" d="M135.4,29.45l.23.14A2.11,2.11,0,0,1,133.38,31a2.64,2.64,0,0,1-1.62-.48,3.84,3.84,0,0,1-.88-1.1,8.61,8.61,0,0,1-1.38,1.08,4.17,4.17,0,0,1-2.07.5A3.63,3.63,0,0,1,125,30.3a2.38,2.38,0,0,1-.88-1.95,2.66,2.66,0,0,1,.72-1.9,3.18,3.18,0,0,1,1-.68,8.57,8.57,0,0,1,1.54-.51c.8-.2,1.38-.37,1.76-.51a3.67,3.67,0,0,0,1-.49,1.68,1.68,0,0,0,.6-.74,3.35,3.35,0,0,0,.17-1.18,3.66,3.66,0,0,0-.61-2.34,1.91,1.91,0,0,0-.7-.54,2,2,0,0,0-.89-.21,1.78,1.78,0,0,0-1,.29,1.71,1.71,0,0,0-.66.79l-.34.8a1,1,0,0,1-1,.64,1.06,1.06,0,0,1-.78-.31,1,1,0,0,1-.31-.77c0-.47.33-.86,1-1.18a5.76,5.76,0,0,1,1.32-.4,7.35,7.35,0,0,1,3.31.06,6.14,6.14,0,0,1,1.53.56A2.22,2.22,0,0,1,132.83,21a6.28,6.28,0,0,1,.11,1.38v5.06a9.23,9.23,0,0,0,.11,1.75,1.09,1.09,0,0,0,1.12,1,1.24,1.24,0,0,0,.66-.15A2.28,2.28,0,0,0,135.4,29.45Zm-4.53-5.38a9.14,9.14,0,0,1-1.62,1.08,15.2,15.2,0,0,0-1.38.8,3.9,3.9,0,0,0-.69.66,2.83,2.83,0,0,0-.64,1.85A2.2,2.2,0,0,0,127,30a1.57,1.57,0,0,0,1.26.58,2.15,2.15,0,0,0,1.26-.41,2.6,2.6,0,0,0,.89-1.12,6.56,6.56,0,0,0,.42-2.65Z"/><path class="cls-4" d="M139.56,19a10.6,10.6,0,0,1,.31,1.9,6.26,6.26,0,0,1,1.94-1.41A5.25,5.25,0,0,1,144,19a3.42,3.42,0,0,1,2.15.66A5.87,5.87,0,0,1,147.38,21a7.47,7.47,0,0,1,2.09-1.55,5.29,5.29,0,0,1,2.27-.49,3.93,3.93,0,0,1,2.68.9,2.92,2.92,0,0,1,1,2.34v5.67a6.25,6.25,0,0,0,.11,1.36,1.53,1.53,0,0,0,.41.71,2.84,2.84,0,0,0,1.43.56v.29h-6v-.29a3.44,3.44,0,0,0,1.17-.3,1.52,1.52,0,0,0,.58-.68,3,3,0,0,0,.21-1c0-.42.07-1,.07-1.82V24.13a18.59,18.59,0,0,0-.1-2.21,3.33,3.33,0,0,0-.37-1.19,2.3,2.3,0,0,0-2.21-1.16,2.65,2.65,0,0,0-2.46,1.25,6.63,6.63,0,0,0-.66,3.36v3.68a6.25,6.25,0,0,0,.11,1.36,1.45,1.45,0,0,0,.41.71,2.72,2.72,0,0,0,1.42.56v.29h-6v-.29a3.59,3.59,0,0,0,1.17-.3,1.59,1.59,0,0,0,.58-.68,3,3,0,0,0,.21-1c0-.42.06-1,.06-1.82V24.21a18.67,18.67,0,0,0-.1-2.34,3.13,3.13,0,0,0-.39-1.21,2,2,0,0,0-.85-.77,2.58,2.58,0,0,0-1.22-.28,3,3,0,0,0-1.46.37,2.72,2.72,0,0,0-1.08,1,3.89,3.89,0,0,0-.53,1.35,11.15,11.15,0,0,0-.15,2v3.51a6.25,6.25,0,0,0,.11,1.36,1.39,1.39,0,0,0,.42.71,2.76,2.76,0,0,0,1.41.56v.29h-6v-.29a3.51,3.51,0,0,0,1.17-.3,1.42,1.42,0,0,0,.58-.68,2.92,2.92,0,0,0,.21-1q.06-.63.06-1.83V23.36a17.72,17.72,0,0,0-.07-2,2,2,0,0,0-.3-.92,1.43,1.43,0,0,0-.56-.56,2.57,2.57,0,0,0-.94-.21v-.28Z"/><path class="cls-4" d="M162.23,29.63l0,2.51v.94a5.62,5.62,0,0,0,.11,1.36,1.45,1.45,0,0,0,.42.73,2.76,2.76,0,0,0,1.41.55V36h-6.05v-.29a4.18,4.18,0,0,0,1.18-.3,1.39,1.39,0,0,0,.58-.67,3.3,3.3,0,0,0,.21-1q.06-.65.06-1.83V22.52a3.74,3.74,0,0,0-.49-2.2,1.88,1.88,0,0,0-1.63-.66v-.34l4-.56a5.46,5.46,0,0,1,.15,1.2v.26a8.42,8.42,0,0,1,1.9-1A6.3,6.3,0,0,1,166,19a5.17,5.17,0,0,1,5,3.23,6.58,6.58,0,0,1,.51,2.62,7.1,7.1,0,0,1-.54,2.78A5.58,5.58,0,0,1,165.73,31a4.75,4.75,0,0,1-1.77-.3A7.41,7.41,0,0,1,162.23,29.63Zm0-4.54a18.07,18.07,0,0,0,.17,2.85,3.73,3.73,0,0,0,.58,1.54,2.83,2.83,0,0,0,1,.84,2.79,2.79,0,0,0,1.26.31,3.13,3.13,0,0,0,2.52-1.37,5.68,5.68,0,0,0,1-1.94,7.63,7.63,0,0,0,.36-2.34,7.81,7.81,0,0,0-.34-2.3,6.13,6.13,0,0,0-.93-1.94,3,3,0,0,0-2.49-1.39A2.8,2.8,0,0,0,163,20.67a4.41,4.41,0,0,0-.58,1.64A17.68,17.68,0,0,0,162.23,25.09Z"/><path class="cls-4" d="M176.27,19.16h3.47v.52h-3.47v8a3.32,3.32,0,0,0,.49,2.05,1.81,1.81,0,0,0,.68.53,2.12,2.12,0,0,0,.91.19,1.88,1.88,0,0,0,1-.25,3.34,3.34,0,0,0,.9-.93l.21.18a2.82,2.82,0,0,1-1.27,1.22,4.67,4.67,0,0,1-2,.4,3.59,3.59,0,0,1-2.35-.63,1.53,1.53,0,0,1-.52-.79,7.49,7.49,0,0,1-.12-1.65V19.68h-1.47v-.22a3.83,3.83,0,0,0,1.65-1.11,5.81,5.81,0,0,0,.73-1,7.61,7.61,0,0,0,.52-1.29l.14-.45h.51Z"/><path class="cls-4" d="M180.45,25a5.61,5.61,0,0,1,1.64-4,6.44,6.44,0,0,1,9.53,0,5.62,5.62,0,0,1,.09,7.86,6.63,6.63,0,0,1-9.7,0,6.1,6.1,0,0,1-1.16-1.83A5.57,5.57,0,0,1,180.45,25Zm2.49-.16a7.27,7.27,0,0,0,1.07,4A3.48,3.48,0,0,0,187,30.73a2.8,2.8,0,0,0,1.43-.41,3.89,3.89,0,0,0,1.21-1.15,6.57,6.57,0,0,0,.86-1.92,8.09,8.09,0,0,0,.33-2.23,7.76,7.76,0,0,0-.35-2.26,6.61,6.61,0,0,0-.94-2,3.31,3.31,0,0,0-2.75-1.55,3.19,3.19,0,0,0-2.66,1.63A6.74,6.74,0,0,0,182.94,24.85Z"/><path class="cls-4" d="M198.38,19a6.27,6.27,0,0,1,.19,1.49v.22a5.5,5.5,0,0,1,4-1.71,4.47,4.47,0,0,1,2.81.82,2.7,2.7,0,0,1,1.06,2.29v5.8a5.67,5.67,0,0,0,.11,1.36,1.39,1.39,0,0,0,.42.71,2.76,2.76,0,0,0,1.41.56v.29h-6v-.29a3.59,3.59,0,0,0,1.18-.3,1.4,1.4,0,0,0,.57-.68,2.71,2.71,0,0,0,.22-1c0-.42.06-1,.06-1.82v-2.9a18.25,18.25,0,0,0-.1-2.18,2.68,2.68,0,0,0-.39-1.12,2.09,2.09,0,0,0-.9-.75,3.09,3.09,0,0,0-1.3-.27,3.47,3.47,0,0,0-1.43.31,2.59,2.59,0,0,0-1,.81,3.07,3.07,0,0,0-.54,1.24,14.75,14.75,0,0,0-.13,2.29v2.68l0,1a5.67,5.67,0,0,0,.11,1.36,1.39,1.39,0,0,0,.42.71,2.68,2.68,0,0,0,1.41.56v.29h-6.05v-.29a3.59,3.59,0,0,0,1.18-.3,1.35,1.35,0,0,0,.57-.68,2.81,2.81,0,0,0,.22-.94q.06-.63.06-1.83V23.38c0-.94,0-1.59-.07-2a2.27,2.27,0,0,0-.3-.92,1.47,1.47,0,0,0-.56-.55,2.63,2.63,0,0,0-1-.21v-.29Z"/><path class="cls-4" d="M231.07,12.11l.23,4.52H231a5.91,5.91,0,0,0-.59-1.9,4.14,4.14,0,0,0-2.71-2,11.16,11.16,0,0,0-2.33-.19h-3.13v8.2h.82a8,8,0,0,0,1.88-.16,2.08,2.08,0,0,0,1-.59,2.38,2.38,0,0,0,.57-.94,8.21,8.21,0,0,0,.31-1.59h.31l0,7.33h-.32a7.34,7.34,0,0,0-.36-1.69,3.26,3.26,0,0,0-.66-1.1,2.49,2.49,0,0,0-1.07-.64,5.61,5.61,0,0,0-1.67-.2h-.78V24.3a25.34,25.34,0,0,0,.1,2.73,4.26,4.26,0,0,0,.37,1.43,3,3,0,0,0,1.41,1.44,5.92,5.92,0,0,0,2.51.46,7.8,7.8,0,0,0,2.75-.42,4.18,4.18,0,0,0,1.81-1.29,5.41,5.41,0,0,0,.8-1.34,12.2,12.2,0,0,0,.56-2l.32,0-.18,5.44H216.37v-.31a4.4,4.4,0,0,0,1.26-.22,2.33,2.33,0,0,0,.87-.58,2.28,2.28,0,0,0,.58-1.11,10.23,10.23,0,0,0,.16-2.07V16.41a10.42,10.42,0,0,0-.16-2.08,2.28,2.28,0,0,0-.58-1.11,2.13,2.13,0,0,0-.86-.57,4.15,4.15,0,0,0-1.27-.22v-.32Z"/><path class="cls-4" d="M234.46,30.78V26.91h.22a7.45,7.45,0,0,0,.95,2.27,3,3,0,0,0,2.46,1.55,2.31,2.31,0,0,0,1.49-.52,2,2,0,0,0,.68-1.63,2.46,2.46,0,0,0-.49-1.51,3.49,3.49,0,0,0-.69-.62,13.17,13.17,0,0,0-1.4-.81,9.32,9.32,0,0,1-2.29-1.53,2.88,2.88,0,0,1-.82-2,3,3,0,0,1,.82-2.12,3.57,3.57,0,0,1,3.8-.76l.47.2a1,1,0,0,0,.38.08c.17,0,.34-.13.49-.41h.28l.15,3.11h-.29a6.4,6.4,0,0,0-.32-1.05,3.22,3.22,0,0,0-.49-.77,3,3,0,0,0-1-.81,2.31,2.31,0,0,0-1.1-.3,1.77,1.77,0,0,0-1.31.56,1.89,1.89,0,0,0-.53,1.36,1.79,1.79,0,0,0,.48,1.21,4.37,4.37,0,0,0,1.49,1l1.45.65a4.79,4.79,0,0,1,1.94,1.47,3.37,3.37,0,0,1,.64,2.06,3.25,3.25,0,0,1-.93,2.38,3.65,3.65,0,0,1-2.73,1.1,5.06,5.06,0,0,1-1.84-.36l-.72-.27a1.39,1.39,0,0,0-.32,0,.79.79,0,0,0-.72.41Z"/><path class="cls-4" d="M255.07,18.61V33.08a6.25,6.25,0,0,0,.11,1.36,1.45,1.45,0,0,0,.42.73,2.77,2.77,0,0,0,1.43.55V36H251v-.29a3.78,3.78,0,0,0,1.17-.3,1.39,1.39,0,0,0,.58-.67,3.24,3.24,0,0,0,.22-1c0-.42.06-1,.06-1.82V29.32a4.73,4.73,0,0,1-1.1,1,4.57,4.57,0,0,1-2.5.67,5.41,5.41,0,0,1-3.62-1.32,5.72,5.72,0,0,1-1.9-4.59,6.2,6.2,0,0,1,1.62-4.49A5.75,5.75,0,0,1,249.84,19a4.85,4.85,0,0,1,1.95.36l.71.31a1.32,1.32,0,0,0,.49.11c.47,0,.89-.37,1.25-1.12ZM253,25.17a20.43,20.43,0,0,0-.16-2.7,6.82,6.82,0,0,0-.42-1.78,2.43,2.43,0,0,0-.94-1.06,2.67,2.67,0,0,0-1.42-.38,3.13,3.13,0,0,0-2.61,1.42,5.58,5.58,0,0,0-.87,1.87,8.41,8.41,0,0,0-.32,2.33,8.14,8.14,0,0,0,.36,2.44,6,6,0,0,0,1,2,3.85,3.85,0,0,0,1.14,1,2.59,2.59,0,0,0,1.27.35,2.43,2.43,0,0,0,1.47-.49,2.91,2.91,0,0,0,1-1.28A10,10,0,0,0,253,25.17Z"/><path class="cls-4" d="M260.64,27.7a1.63,1.63,0,0,1,1.17.49,1.61,1.61,0,0,1,.48,1.18,1.59,1.59,0,0,1-.48,1.17,1.63,1.63,0,0,1-1.17.49,1.6,1.6,0,0,1-1.17-.49,1.56,1.56,0,0,1-.49-1.17,1.67,1.67,0,0,1,1.66-1.67Z"/><path class="cls-4" d="M92,434.59h-.33a17.3,17.3,0,0,1-2.5-3.39,13.14,13.14,0,0,1-1.1-2.76,10.06,10.06,0,0,1-.4-2.72A10.62,10.62,0,0,1,88,423a13.16,13.16,0,0,1,1.09-2.79,12.52,12.52,0,0,1,1-1.63c.38-.51.87-1.1,1.46-1.75H92l-.18.33a26.81,26.81,0,0,0-1.2,2.55,13.71,13.71,0,0,0-.65,2.26c-.11.57-.21,1.21-.29,1.93s-.11,1.33-.11,1.83a18.37,18.37,0,0,0,.15,2.14,15.68,15.68,0,0,0,.66,3.22,21,21,0,0,0,1.44,3.22Z"/><path class="cls-4" d="M101.3,432H93v-.22c.87-.77,1.74-1.63,2.62-2.58a32.47,32.47,0,0,0,2.25-2.71,17,17,0,0,0,1.89-3.08,6,6,0,0,0,.58-2.43,3.64,3.64,0,0,0-1-2.57,2.58,2.58,0,0,0-2-.88,2.62,2.62,0,0,0-1.73.62,2.74,2.74,0,0,0-.79,1,3.57,3.57,0,0,0-.27,1.4,2.78,2.78,0,0,0,1.63,2.6,2.12,2.12,0,0,0,.87.2h.25l.07.18a3,3,0,0,1-1.35.4,2.27,2.27,0,0,1-1.62-.67,2.59,2.59,0,0,1-.67-1A3.39,3.39,0,0,1,93.6,421a3.43,3.43,0,0,1,1.17-2.67,4.47,4.47,0,0,1,3.06-1.06,5.12,5.12,0,0,1,1.86.33,3.9,3.9,0,0,1,2.23,2.26,4.57,4.57,0,0,1,.27,1.56,5.94,5.94,0,0,1-1.11,3.27,13,13,0,0,1-1.31,1.58q-.76.78-2.13,1.92c-1.17,1-2,1.66-2.5,2.13H99a5.43,5.43,0,0,0,1.37-.12,1.91,1.91,0,0,0,.91-.54,3.25,3.25,0,0,0,.65-1.25l.23,0Z"/><path class="cls-4" d="M105.85,425.23l1.92-7.83a11.51,11.51,0,0,0,2.78.37,6.58,6.58,0,0,0,1.23-.09,3.14,3.14,0,0,0,.85-.28,3.17,3.17,0,0,1-.26.85,2.08,2.08,0,0,1-.48.59,2.66,2.66,0,0,1-1.74.48,13.29,13.29,0,0,1-2.37-.28l-1.17,4.67a4.05,4.05,0,0,1,1-.6,3.2,3.2,0,0,1,1.09-.17,3.62,3.62,0,0,1,2.75,1.18,3.89,3.89,0,0,1,.78,1.24,3.93,3.93,0,0,1,.27,1.42,5.68,5.68,0,0,1-2.44,4.56,5,5,0,0,1-2.83.82,5.26,5.26,0,0,1-1.64-.25,3.72,3.72,0,0,1-1.3-.68,2.47,2.47,0,0,1-.63-.81,2.19,2.19,0,0,1-.23-1,1.19,1.19,0,0,1,.27-.8.86.86,0,0,1,.69-.31.71.71,0,0,1,.56.24.91.91,0,0,1,.22.63,3.82,3.82,0,0,1,0,.43,3.34,3.34,0,0,0,0,.43,1.68,1.68,0,0,0,.55,1.32,2,2,0,0,0,1.44.49,2.9,2.9,0,0,0,2.44-1.33,5.83,5.83,0,0,0,.8-1.72,7.39,7.39,0,0,0,.3-2.09,4.65,4.65,0,0,0-.63-2.58,1.91,1.91,0,0,0-1.68-1,1.78,1.78,0,0,0-1.27.51,3.68,3.68,0,0,0-.88,1.52Z"/><path class="cls-4" d="M119.67,417.44h.24v11.67a4.82,4.82,0,0,0,.15,1.33,1.44,1.44,0,0,0,.44.77,2.85,2.85,0,0,0,1.63.53V432H116v-.23a4.49,4.49,0,0,0,1.07-.17,1.59,1.59,0,0,0,.63-.42,1.69,1.69,0,0,0,.38-.71,6.38,6.38,0,0,0,.1-1.27V419a7,7,0,0,1-.86.07A5,5,0,0,1,116,419v-.19h.24a4.49,4.49,0,0,0,1.56-.27,7.43,7.43,0,0,0,1.6-.88Z"/><path class="cls-4" d="M124.69,416.78H125a16.58,16.58,0,0,1,2.5,3.38,12.53,12.53,0,0,1,1.11,2.77,10.37,10.37,0,0,1,.39,2.71,10.66,10.66,0,0,1-.4,2.78,12.79,12.79,0,0,1-1.1,2.78,11.82,11.82,0,0,1-1,1.63,22,22,0,0,1-1.47,1.76h-.33l.18-.33a24,24,0,0,0,1.21-2.56,13.71,13.71,0,0,0,.65-2.26c.12-.56.21-1.21.29-1.93s.11-1.33.11-1.83a18.21,18.21,0,0,0-.15-2.13,17,17,0,0,0-.66-3.22,20.74,20.74,0,0,0-1.45-3.22Z"/><path class="cls-4" d="M145.87,417.64l-5.18,13.15-.21.54a1.67,1.67,0,0,1-.41.63.84.84,0,0,1-.57.2.93.93,0,0,1-.64-.24.71.71,0,0,1-.27-.56,2,2,0,0,1,.27-.82l.22-.41,5.68-10.79h-4.64a5,5,0,0,0-.89.06,1.6,1.6,0,0,0-.54.21,1.82,1.82,0,0,0-.53.54,8.39,8.39,0,0,0-.56,1.11l0,.13h-.21l1-4.25h.22a.64.64,0,0,0,.23.44,1.72,1.72,0,0,0,.7.09Z"/><path class="cls-4" d="M149.79,423.71a5.07,5.07,0,0,1,1.37-.85,3.59,3.59,0,0,1,1.39-.27,3.94,3.94,0,0,1,1.64.37,4.39,4.39,0,0,1,1.94,1.7,4.77,4.77,0,0,1,.71,2.57,5.54,5.54,0,0,1-.37,2,5.12,5.12,0,0,1-1.05,1.64,4.12,4.12,0,0,1-3.06,1.3,4,4,0,0,1-3.39-1.79,7.22,7.22,0,0,1-1.13-4.21,11.31,11.31,0,0,1,.69-4,9.29,9.29,0,0,1,2-3.2,6.21,6.21,0,0,1,1.74-1.32,4.48,4.48,0,0,1,1.92-.42,3.55,3.55,0,0,1,1.84.43,1.29,1.29,0,0,1,.74,1.1.83.83,0,0,1-.21.58.68.68,0,0,1-.52.23.8.8,0,0,1-.41-.1.86.86,0,0,1-.31-.29,3,3,0,0,1-.31-.68,1.69,1.69,0,0,0-.49-.75,1.28,1.28,0,0,0-.79-.22,3,3,0,0,0-2.49,1.77A10.2,10.2,0,0,0,149.79,423.71Zm-.19,3.7a6.23,6.23,0,0,0,.74,3.23,2.24,2.24,0,0,0,1.93,1.25,2,2,0,0,0,1.1-.34,2.77,2.77,0,0,0,.9-1,5.66,5.66,0,0,0,.62-1.58,7.54,7.54,0,0,0,.23-1.87,7,7,0,0,0-.24-1.83,4.54,4.54,0,0,0-.65-1.47,2.2,2.2,0,0,0-1.87-1,2.15,2.15,0,0,0-1.7.84,4.42,4.42,0,0,0-.79,1.58A8,8,0,0,0,149.6,427.41Z"/><path class="cls-4" d="M167.31,417.64l-5.18,13.15-.22.54a1.56,1.56,0,0,1-.41.63.84.84,0,0,1-.57.2.9.9,0,0,1-.63-.24.71.71,0,0,1-.27-.56,2,2,0,0,1,.27-.82l.22-.41,5.67-10.79h-4.64a4.87,4.87,0,0,0-.88.06,1.45,1.45,0,0,0-.54.21,1.74,1.74,0,0,0-.54.54,8.66,8.66,0,0,0-.55,1.11l0,.13h-.22l1-4.25H160a.61.61,0,0,0,.24.44,1.69,1.69,0,0,0,.69.09Z"/><path class="cls-4" d="M168.77,426.55h4.74v1.6h-4.74Z"/><path class="cls-4" d="M183.5,417.64l-5.19,13.15-.21.54a1.56,1.56,0,0,1-.41.63.84.84,0,0,1-.57.2.93.93,0,0,1-.64-.24.73.73,0,0,1-.26-.56,2.08,2.08,0,0,1,.26-.82l.23-.41,5.67-10.79h-4.64a4.87,4.87,0,0,0-.88.06,1.58,1.58,0,0,0-.55.21,1.82,1.82,0,0,0-.53.54,8.66,8.66,0,0,0-.55,1.11l-.06.13H175l1-4.25h.22a.61.61,0,0,0,.24.44,1.63,1.63,0,0,0,.69.09Z"/><path class="cls-4" d="M193.64,432h-8.27v-.22a35.14,35.14,0,0,0,2.62-2.58,29,29,0,0,0,2.25-2.71,17.73,17.73,0,0,0,1.9-3.08,6.13,6.13,0,0,0,.58-2.43,3.65,3.65,0,0,0-1-2.57,2.56,2.56,0,0,0-2-.88,2.73,2.73,0,0,0-2.51,1.66,3.4,3.4,0,0,0-.28,1.4,2.74,2.74,0,0,0,.83,2,2.58,2.58,0,0,0,.8.56,2.12,2.12,0,0,0,.87.2h.26l.06.18a3,3,0,0,1-1.35.4,2.29,2.29,0,0,1-1.62-.67,2.71,2.71,0,0,1-.67-1A3.38,3.38,0,0,1,186,421a3.43,3.43,0,0,1,1.17-2.67,4.44,4.44,0,0,1,3-1.06,5.12,5.12,0,0,1,1.86.33,3.82,3.82,0,0,1,1.43,1,3.89,3.89,0,0,1,.8,1.29,4.58,4.58,0,0,1,.28,1.56,6,6,0,0,1-1.12,3.27,12.17,12.17,0,0,1-1.31,1.58q-.77.78-2.13,1.92c-1.16,1-2,1.66-2.5,2.13h3.84a5.38,5.38,0,0,0,1.37-.12,1.87,1.87,0,0,0,.91-.54,3.25,3.25,0,0,0,.65-1.25l.23,0Z"/><path class="cls-4" d="M198.13,423.71a5.23,5.23,0,0,1,1.37-.85,3.62,3.62,0,0,1,1.39-.27,3.91,3.91,0,0,1,1.64.37,4.39,4.39,0,0,1,1.94,1.7,4.77,4.77,0,0,1,.71,2.57,5.33,5.33,0,0,1-.37,2,4.8,4.8,0,0,1-1.05,1.64,4.09,4.09,0,0,1-3.06,1.3,4,4,0,0,1-3.39-1.79,7.22,7.22,0,0,1-1.12-4.21,11.3,11.3,0,0,1,.68-4,9.29,9.29,0,0,1,2-3.2,6.36,6.36,0,0,1,1.74-1.32,4.48,4.48,0,0,1,1.92-.42,3.59,3.59,0,0,1,1.85.43,1.28,1.28,0,0,1,.73,1.1.83.83,0,0,1-.21.58.67.67,0,0,1-.52.23.8.8,0,0,1-.41-.1.86.86,0,0,1-.31-.29,3.66,3.66,0,0,1-.3-.68,1.69,1.69,0,0,0-.5-.75,1.26,1.26,0,0,0-.79-.22,3.06,3.06,0,0,0-2.49,1.77A10.34,10.34,0,0,0,198.13,423.71Zm-.19,3.7a6.23,6.23,0,0,0,.74,3.23,2.25,2.25,0,0,0,1.93,1.25,1.93,1.93,0,0,0,1.1-.34,2.77,2.77,0,0,0,.9-1,5.37,5.37,0,0,0,.62-1.58,7.54,7.54,0,0,0,.23-1.87,7,7,0,0,0-.23-1.83,4.54,4.54,0,0,0-.66-1.47,2.2,2.2,0,0,0-1.87-1,2.15,2.15,0,0,0-1.7.84,4.25,4.25,0,0,0-.78,1.58A7.59,7.59,0,0,0,197.94,427.41Z"/><path class="cls-4" d="M208.85,423.71a5.23,5.23,0,0,1,1.37-.85,3.59,3.59,0,0,1,1.39-.27,3.94,3.94,0,0,1,1.64.37,4.39,4.39,0,0,1,1.94,1.7,4.77,4.77,0,0,1,.71,2.57,5.54,5.54,0,0,1-.37,2,5.12,5.12,0,0,1-1.05,1.64,4.12,4.12,0,0,1-3.06,1.3,4,4,0,0,1-3.39-1.79,7.22,7.22,0,0,1-1.13-4.21,11.31,11.31,0,0,1,.69-4,9.43,9.43,0,0,1,1.95-3.2,6.39,6.39,0,0,1,1.75-1.32,4.48,4.48,0,0,1,1.92-.42,3.55,3.55,0,0,1,1.84.43,1.29,1.29,0,0,1,.74,1.1.83.83,0,0,1-.21.58.69.69,0,0,1-.53.23.79.79,0,0,1-.4-.1.86.86,0,0,1-.31-.29,3,3,0,0,1-.31-.68,1.69,1.69,0,0,0-.49-.75,1.28,1.28,0,0,0-.79-.22,3.07,3.07,0,0,0-2.5,1.77A10.34,10.34,0,0,0,208.85,423.71Zm-.19,3.7a6.23,6.23,0,0,0,.74,3.23,2.24,2.24,0,0,0,1.93,1.25,2,2,0,0,0,1.1-.34,2.77,2.77,0,0,0,.9-1A5.66,5.66,0,0,0,214,429a8,8,0,0,0,.23-1.87,7,7,0,0,0-.24-1.83,4.54,4.54,0,0,0-.65-1.47,2.2,2.2,0,0,0-1.87-1,2.14,2.14,0,0,0-1.7.84,4.42,4.42,0,0,0-.79,1.58A8,8,0,0,0,208.66,427.41Z"/><path class="cls-4" d="M56.86,460.25v-2.62H57a5.05,5.05,0,0,0,.65,1.54,2,2,0,0,0,1.66,1.05,1.51,1.51,0,0,0,1-.36,1.33,1.33,0,0,0,.46-1.1,1.64,1.64,0,0,0-.33-1,2.42,2.42,0,0,0-.47-.42c-.19-.13-.5-.31-1-.55a6.37,6.37,0,0,1-1.55-1,1.93,1.93,0,0,1-.55-1.37,2,2,0,0,1,.55-1.43,2.21,2.21,0,0,1,1.7-.69,2.34,2.34,0,0,1,.88.17l.31.14a.69.69,0,0,0,.26.05c.12,0,.23-.09.34-.27h.18l.1,2.1h-.19a3.79,3.79,0,0,0-.22-.71,2.07,2.07,0,0,0-.33-.52,2,2,0,0,0-.66-.55,1.51,1.51,0,0,0-.75-.2,1.18,1.18,0,0,0-.88.37,1.29,1.29,0,0,0-.37.92,1.17,1.17,0,0,0,.33.82,2.9,2.9,0,0,0,1,.67l1,.45a3.15,3.15,0,0,1,1.32,1,2.35,2.35,0,0,1,.43,1.4,2.2,2.2,0,0,1-.63,1.61,2.49,2.49,0,0,1-1.85.74,3.45,3.45,0,0,1-1.24-.24l-.49-.18a.72.72,0,0,0-.22,0,.55.55,0,0,0-.49.27Z"/><path class="cls-4" d="M64.89,455.22c0,.3,0,.52,0,.65a5.25,5.25,0,0,0,.23,1.58,3.94,3.94,0,0,0,.64,1.28,3,3,0,0,0,1,.81,2.91,2.91,0,0,0,1.29.3,2.66,2.66,0,0,0,.94-.17,2.16,2.16,0,0,0,.75-.46,2.63,2.63,0,0,0,.57-1l.19.06a2.57,2.57,0,0,1-1,1.64,3.6,3.6,0,0,1-2.1.55,4.83,4.83,0,0,1-2-.36A3.51,3.51,0,0,1,64,459a4.21,4.21,0,0,1-.79-2.58,3.94,3.94,0,0,1,1.5-3.27,3.87,3.87,0,0,1,2.47-.86,3.45,3.45,0,0,1,1.37.27,2.79,2.79,0,0,1,1.06.76,2.88,2.88,0,0,1,.68,2Zm4-.37a3.51,3.51,0,0,0-.34-1.42,2.08,2.08,0,0,0-.66-.72,1.62,1.62,0,0,0-.89-.26,1.81,1.81,0,0,0-1.39.68,3.07,3.07,0,0,0-.7,1.72Z"/><path class="cls-4" d="M79.4,459.36l.16.09a1.43,1.43,0,0,1-1.53,1,1.81,1.81,0,0,1-1.09-.32,2.54,2.54,0,0,1-.59-.74,6.61,6.61,0,0,1-.94.73,2.87,2.87,0,0,1-1.4.33,2.47,2.47,0,0,1-1.62-.49,1.63,1.63,0,0,1-.6-1.33,1.81,1.81,0,0,1,.49-1.28,2.22,2.22,0,0,1,.64-.46,6.67,6.67,0,0,1,1-.35c.54-.13.93-.25,1.19-.34a2.4,2.4,0,0,0,.64-.33,1.13,1.13,0,0,0,.41-.5,2.44,2.44,0,0,0,.11-.8,2.49,2.49,0,0,0-.41-1.58,1.23,1.23,0,0,0-.47-.37,1.33,1.33,0,0,0-.61-.14,1.22,1.22,0,0,0-.68.19,1.24,1.24,0,0,0-.44.54l-.23.54a.67.67,0,0,1-.67.43.72.72,0,0,1-.53-.21.7.7,0,0,1-.21-.52c0-.32.22-.58.67-.8a4.1,4.1,0,0,1,.89-.27,5.51,5.51,0,0,1,1.05-.11,5,5,0,0,1,1.19.15,4.29,4.29,0,0,1,1,.38,1.5,1.5,0,0,1,.75.89,4,4,0,0,1,.08.93V458a6.28,6.28,0,0,0,.07,1.19.73.73,0,0,0,.76.65.83.83,0,0,0,.45-.1A1.47,1.47,0,0,0,79.4,459.36Zm-3.06-3.65a6.57,6.57,0,0,1-1.1.73,10,10,0,0,0-.93.54,2.85,2.85,0,0,0-.47.45,1.93,1.93,0,0,0-.44,1.25,1.54,1.54,0,0,0,.34,1,1.08,1.08,0,0,0,.85.4,1.46,1.46,0,0,0,.86-.29,1.65,1.65,0,0,0,.6-.75,4.43,4.43,0,0,0,.29-1.8Z"/><path class="cls-4" d="M82.21,452.24a4.18,4.18,0,0,1,.13,1v.15a3.72,3.72,0,0,1,2.73-1.16,3.05,3.05,0,0,1,1.91.56,1.84,1.84,0,0,1,.71,1.55v3.92a4,4,0,0,0,.08.92,1,1,0,0,0,.28.49,1.94,1.94,0,0,0,1,.38v.19h-4.1v-.19a2.42,2.42,0,0,0,.8-.21,1,1,0,0,0,.39-.46,2,2,0,0,0,.14-.64c0-.29,0-.7,0-1.24v-2a10.68,10.68,0,0,0-.07-1.48,1.7,1.7,0,0,0-.26-.75,1.34,1.34,0,0,0-.61-.51,2.1,2.1,0,0,0-.88-.18,2.24,2.24,0,0,0-1,.21,1.72,1.72,0,0,0-.71.55,2.1,2.1,0,0,0-.36.84,9.25,9.25,0,0,0-.09,1.55v2.49a4.09,4.09,0,0,0,.07.92,1,1,0,0,0,.29.49,1.89,1.89,0,0,0,1,.38v.19H79.57v-.19a2.42,2.42,0,0,0,.8-.21,1,1,0,0,0,.39-.45,2.46,2.46,0,0,0,.14-.65c0-.28,0-.69,0-1.23v-2.28a10.4,10.4,0,0,0,0-1.33,1.34,1.34,0,0,0-.2-.62,1,1,0,0,0-.38-.38,1.85,1.85,0,0,0-.64-.14v-.19Z"/><path class="cls-4" d="M100.57,458.68l.29.42a4.74,4.74,0,0,1-1,.71,7,7,0,0,1-1.56.56,6.94,6.94,0,0,1-1.6.2,6.67,6.67,0,0,1-5.39-2.83,6.54,6.54,0,0,1-1.18-3.82,6.67,6.67,0,0,1,.62-2.82,6.58,6.58,0,0,1,5.93-3.81,6.27,6.27,0,0,1,2.44.5,5.53,5.53,0,0,1,2,1.37,5.23,5.23,0,0,1,1,1.7,5.51,5.51,0,0,1,.36,2A5.16,5.16,0,0,1,102,455a4.33,4.33,0,0,1-2.55,2.33,4.18,4.18,0,0,1-1.38.24c-.82,0-1.23-.34-1.23-1a4,4,0,0,1,.15-.92l-.07,0a4.66,4.66,0,0,1-1.13,1.44,2.06,2.06,0,0,1-1.31.49,1.62,1.62,0,0,1-1.23-.52,2,2,0,0,1-.52-1.5,4.84,4.84,0,0,1,.47-2,7.17,7.17,0,0,1,1.3-1.89,4.89,4.89,0,0,1,1.26-1,2.58,2.58,0,0,1,1.24-.35,1.27,1.27,0,0,1,.74.21,1.21,1.21,0,0,1,.44.61l.11,0,.25-.77h1l-1.18,4c-.12.39-.22.82-.31,1.27a6.07,6.07,0,0,0-.14,1,.36.36,0,0,0,.13.31.65.65,0,0,0,.42.1,2.51,2.51,0,0,0,1.12-.3,3.93,3.93,0,0,0,1.07-.81,4.26,4.26,0,0,0,1.16-3,4.68,4.68,0,0,0-1.81-3.88,5.18,5.18,0,0,0-3.37-1.21,5.71,5.71,0,0,0-2.19.44,5.8,5.8,0,0,0-2.72,2.21,6,6,0,0,0-1,3.41,6.26,6.26,0,0,0,.59,2.69,6,6,0,0,0,5.41,3.4A6.37,6.37,0,0,0,100.57,458.68Zm-2.65-7.14a.94.94,0,0,0-.23-.65.72.72,0,0,0-.59-.25c-.59,0-1.24.59-1.95,1.75a9.13,9.13,0,0,0-.9,1.93,5.37,5.37,0,0,0-.34,1.74c0,.72.27,1.08.82,1.08a1.54,1.54,0,0,0,1-.49,4.92,4.92,0,0,0,1-1.34,12.26,12.26,0,0,0,.8-1.95A6,6,0,0,0,97.92,451.54Z"/><path class="cls-4" d="M106.35,447.24v6.34a6.16,6.16,0,0,1,.58-.62,2.47,2.47,0,0,1,.6-.38,3.32,3.32,0,0,1,1.54-.34,3.4,3.4,0,0,1,1.8.44,1.7,1.7,0,0,1,.7.79,3.84,3.84,0,0,1,.19,1.4v3.4a4.09,4.09,0,0,0,.07.92,1,1,0,0,0,.29.49,1.89,1.89,0,0,0,1,.38v.19H109v-.19a2.69,2.69,0,0,0,.7-.16,1.09,1.09,0,0,0,.38-.31,1.66,1.66,0,0,0,.23-.63,8.63,8.63,0,0,0,.06-1.18v-2.93a4.23,4.23,0,0,0-.1-1.05,1.74,1.74,0,0,0-.34-.68,1.68,1.68,0,0,0-1.33-.54c-1.49,0-2.24,1.17-2.24,3.53v2.16a4.79,4.79,0,0,0,.07.92,1,1,0,0,0,.29.49,1.89,1.89,0,0,0,1,.38v.19h-4.09v-.19a2.42,2.42,0,0,0,.8-.21,1,1,0,0,0,.39-.46,2,2,0,0,0,.14-.64c0-.29,0-.7,0-1.24v-7.26c0-.63,0-1.07,0-1.33a1.38,1.38,0,0,0-.21-.63.9.9,0,0,0-.38-.37,1.6,1.6,0,0,0-.64-.14v-.2Z"/><path class="cls-4" d="M121.45,459.36l.15.09a1.43,1.43,0,0,1-1.52,1,1.84,1.84,0,0,1-1.1-.32,2.54,2.54,0,0,1-.59-.74,6.61,6.61,0,0,1-.94.73,2.87,2.87,0,0,1-1.4.33,2.47,2.47,0,0,1-1.62-.49,1.63,1.63,0,0,1-.6-1.33,1.81,1.81,0,0,1,.49-1.28,2.22,2.22,0,0,1,.64-.46,6.67,6.67,0,0,1,1.05-.35c.54-.13.93-.25,1.19-.34a2.26,2.26,0,0,0,.64-.33,1.13,1.13,0,0,0,.41-.5,2.2,2.2,0,0,0,.11-.8A2.5,2.5,0,0,0,118,453a1.35,1.35,0,0,0-.48-.37,1.33,1.33,0,0,0-.61-.14,1.17,1.17,0,0,0-.67.19,1.2,1.2,0,0,0-.45.54l-.23.54a.67.67,0,0,1-.67.43.74.74,0,0,1-.53-.21.7.7,0,0,1-.21-.52c0-.32.22-.58.67-.8a4.1,4.1,0,0,1,.89-.27,5.51,5.51,0,0,1,1-.11,5,5,0,0,1,1.19.15,4.14,4.14,0,0,1,1,.38,1.48,1.48,0,0,1,.76.89,4.84,4.84,0,0,1,.07.93V458a6.28,6.28,0,0,0,.07,1.19.73.73,0,0,0,.76.65.83.83,0,0,0,.45-.1A1.64,1.64,0,0,0,121.45,459.36Zm-3.07-3.65a6.57,6.57,0,0,1-1.1.73,10,10,0,0,0-.93.54,2.85,2.85,0,0,0-.47.45,1.92,1.92,0,0,0-.43,1.25,1.53,1.53,0,0,0,.33,1,1.1,1.1,0,0,0,.86.4,1.45,1.45,0,0,0,.85-.29,1.65,1.65,0,0,0,.6-.75,4.26,4.26,0,0,0,.29-1.8Z"/><path class="cls-4" d="M124.26,452.24a7.37,7.37,0,0,1,.21,1.29,4.26,4.26,0,0,1,1.31-.95,3.51,3.51,0,0,1,1.52-.34,2.3,2.3,0,0,1,1.45.45,4,4,0,0,1,.81.93,5,5,0,0,1,1.42-1,3.43,3.43,0,0,1,1.53-.34,2.63,2.63,0,0,1,1.81.61,2,2,0,0,1,.7,1.58v3.84a4,4,0,0,0,.08.92,1,1,0,0,0,.27.49,2,2,0,0,0,1,.38v.19h-4.1v-.19a2.28,2.28,0,0,0,.79-.21,1,1,0,0,0,.4-.46,2,2,0,0,0,.14-.64c0-.29,0-.7,0-1.24v-1.76a13.27,13.27,0,0,0-.06-1.5,2.28,2.28,0,0,0-.25-.8,1.56,1.56,0,0,0-1.5-.79,1.79,1.79,0,0,0-1.66.85,4.49,4.49,0,0,0-.45,2.28v2.48a4.09,4.09,0,0,0,.07.92,1,1,0,0,0,.28.49,1.9,1.9,0,0,0,1,.38v.19h-4.09v-.19a2.35,2.35,0,0,0,.79-.21,1,1,0,0,0,.39-.46,1.93,1.93,0,0,0,.15-.64c0-.29,0-.7,0-1.24V455.8a12,12,0,0,0-.07-1.58,2.14,2.14,0,0,0-.26-.82,1.4,1.4,0,0,0-.58-.52,1.72,1.72,0,0,0-.83-.19,2,2,0,0,0-1,.25,2,2,0,0,0-.73.67,2.66,2.66,0,0,0-.35.91,7.39,7.39,0,0,0-.11,1.38v2.37a4.79,4.79,0,0,0,.07.92,1,1,0,0,0,.29.49,1.9,1.9,0,0,0,1,.38v.19h-4.1v-.19a2.42,2.42,0,0,0,.8-.21,1,1,0,0,0,.39-.46,2,2,0,0,0,.14-.64c0-.28,0-.7,0-1.24v-2.28c0-.64,0-1.08,0-1.34a1.38,1.38,0,0,0-.21-.62.9.9,0,0,0-.38-.37,1.58,1.58,0,0,0-.64-.15v-.19Z"/><path class="cls-4" d="M139.61,459.48v2.33a4,4,0,0,0,.08.92,1,1,0,0,0,.29.5,1.9,1.9,0,0,0,.95.37v.19h-4.09v-.19a2.35,2.35,0,0,0,.79-.21.88.88,0,0,0,.39-.45,2,2,0,0,0,.15-.65c0-.29,0-.7,0-1.24v-6.39a2.54,2.54,0,0,0-.33-1.49,1.29,1.29,0,0,0-1.11-.45v-.23l2.71-.38a4.25,4.25,0,0,1,.1.82v.17a5.4,5.4,0,0,1,1.28-.66,4.23,4.23,0,0,1,1.31-.2,3.58,3.58,0,0,1,2.4.85,3.49,3.49,0,0,1,1,1.34,4.48,4.48,0,0,1,.34,1.78,4.88,4.88,0,0,1-.36,1.88,3.68,3.68,0,0,1-1,1.43,3.74,3.74,0,0,1-2.51.9,3.35,3.35,0,0,1-1.2-.2A5.58,5.58,0,0,1,139.61,459.48Zm0-3.08a11.49,11.49,0,0,0,.12,1.93,2.41,2.41,0,0,0,.39,1,1.81,1.81,0,0,0,.68.57,1.87,1.87,0,0,0,.85.21,2.13,2.13,0,0,0,1.71-.93,3.88,3.88,0,0,0,.68-1.31,5.22,5.22,0,0,0,.24-1.58,5.5,5.5,0,0,0-.22-1.56,4.11,4.11,0,0,0-.64-1.31,2,2,0,0,0-1.68-.95,1.9,1.9,0,0,0-.93.24,1.82,1.82,0,0,0-.69.66,2.91,2.91,0,0,0-.39,1.11A11.22,11.22,0,0,0,139.61,456.4Z"/><path class="cls-4" d="M149.12,452.38h2.35v.35h-2.35v5.39a2.27,2.27,0,0,0,.33,1.39,1.09,1.09,0,0,0,.46.36,1.44,1.44,0,0,0,.62.13,1.22,1.22,0,0,0,.69-.17,2.23,2.23,0,0,0,.61-.62l.14.12a1.94,1.94,0,0,1-.86.82,3.1,3.1,0,0,1-1.37.27,2.43,2.43,0,0,1-1.6-.43,1,1,0,0,1-.35-.53,5.42,5.42,0,0,1-.08-1.11v-5.62h-1v-.14a2.61,2.61,0,0,0,1.11-.75,3.67,3.67,0,0,0,.49-.69,4.08,4.08,0,0,0,.36-.87l.09-.31h.35Z"/><path class="cls-4" d="M152,456.35a3.8,3.8,0,0,1,1.11-2.68,4.36,4.36,0,0,1,6.46,0,3.8,3.8,0,0,1,0,5.32,4.48,4.48,0,0,1-6.56,0,4.15,4.15,0,0,1-.79-1.24A3.75,3.75,0,0,1,152,456.35Zm1.69-.11a5,5,0,0,0,.72,2.73,2.35,2.35,0,0,0,2,1.25,1.94,1.94,0,0,0,1-.28,2.64,2.64,0,0,0,.82-.78,4.35,4.35,0,0,0,.58-1.3,5.25,5.25,0,0,0,0-3,4.45,4.45,0,0,0-.64-1.33,2.26,2.26,0,0,0-1.86-1,2.17,2.17,0,0,0-1.81,1.1A4.59,4.59,0,0,0,153.64,456.24Z"/><path class="cls-4" d="M164.09,452.24a4.18,4.18,0,0,1,.13,1v.15a3.74,3.74,0,0,1,2.73-1.16,3.05,3.05,0,0,1,1.91.56,1.84,1.84,0,0,1,.71,1.55v3.92a4,4,0,0,0,.08.92,1,1,0,0,0,.28.49,1.94,1.94,0,0,0,1,.38v.19h-4.1v-.19a2.42,2.42,0,0,0,.8-.21,1,1,0,0,0,.39-.46,1.74,1.74,0,0,0,.14-.64c0-.29,0-.7,0-1.24v-2a12.56,12.56,0,0,0-.07-1.48,1.84,1.84,0,0,0-.27-.75,1.34,1.34,0,0,0-.61-.51,2.07,2.07,0,0,0-.88-.18,2.24,2.24,0,0,0-1,.21,1.79,1.79,0,0,0-.71.55,2.1,2.1,0,0,0-.36.84,9.25,9.25,0,0,0-.09,1.55v2.49a4.09,4.09,0,0,0,.07.92,1,1,0,0,0,.29.49,1.89,1.89,0,0,0,.95.38v.19h-4.09v-.19a2.42,2.42,0,0,0,.8-.21,1,1,0,0,0,.39-.45,2.46,2.46,0,0,0,.14-.65c0-.28,0-.69,0-1.23v-2.28c0-.63,0-1.08,0-1.33a1.46,1.46,0,0,0-.21-.62,1,1,0,0,0-.38-.38,1.85,1.85,0,0,0-.64-.14v-.19Z"/><path class="cls-4" d="M174,452.24v7c0,.81,0,1.31,0,1.48a4,4,0,0,1-.36,1.55,2.39,2.39,0,0,1-2.34,1.24,2.78,2.78,0,0,1-1.43-.31,1,1,0,0,1-.54-.85.72.72,0,0,1,.16-.47.52.52,0,0,1,.41-.18.61.61,0,0,1,.6.53l.13.45a.79.79,0,0,0,.82.63,1,1,0,0,0,.58-.17,1.1,1.1,0,0,0,.39-.5,2.94,2.94,0,0,0,.15-.75c0-.34,0-.79,0-1.36V454.8a2.6,2.6,0,0,0-.33-1.5,1.27,1.27,0,0,0-1.1-.45v-.23Zm-.74-3.32a.85.85,0,0,1-.6-.23.79.79,0,0,1-.24-.59.8.8,0,0,1,.24-.58.88.88,0,0,1,.6-.23.85.85,0,0,1,.6.23.8.8,0,0,1,.24.58.82.82,0,0,1-.23.59A.85.85,0,0,1,173.24,448.92Z"/><path class="cls-4" d="M182.06,460.57a4.46,4.46,0,0,1-.1-1,5.51,5.51,0,0,1-1.29.64,4.17,4.17,0,0,1-1.3.19,3.62,3.62,0,0,1-2.4-.84,3.52,3.52,0,0,1-1-1.35,4.47,4.47,0,0,1-.34-1.77,4.72,4.72,0,0,1,.37-1.89,3.7,3.7,0,0,1,3.54-2.33,3.07,3.07,0,0,1,1.2.21,4.86,4.86,0,0,1,1.17.74v-3.43a2.42,2.42,0,0,0-.34-1.44,1.29,1.29,0,0,0-1.11-.45v-.22l2.84-.36V458a2.52,2.52,0,0,0,.34,1.48,1.28,1.28,0,0,0,1.1.45v.23Zm-.13-4.32a12.86,12.86,0,0,0-.11-1.93,2.65,2.65,0,0,0-.4-1.05,1.85,1.85,0,0,0-.67-.56,1.8,1.8,0,0,0-.86-.22,2.12,2.12,0,0,0-1.71.93,4.33,4.33,0,0,0-.68,1.32,5.33,5.33,0,0,0-.24,1.59,5.51,5.51,0,0,0,.23,1.56,4.2,4.2,0,0,0,.63,1.31,2,2,0,0,0,1.69.94,1.91,1.91,0,0,0,1.62-.91,3.18,3.18,0,0,0,.39-1.09A12.72,12.72,0,0,0,181.93,456.25Z"/><path class="cls-4" d="M185.37,447.58l2.67-.34v11a4.09,4.09,0,0,0,.07.92,1,1,0,0,0,.29.49,1.89,1.89,0,0,0,1,.38v.19h-4.09v-.19a2.35,2.35,0,0,0,.79-.21.86.86,0,0,0,.39-.46,1.93,1.93,0,0,0,.15-.64c0-.29,0-.7,0-1.24v-7.26a12.89,12.89,0,0,0,0-1.33,1.51,1.51,0,0,0-.2-.63,1,1,0,0,0-.38-.37,1.64,1.64,0,0,0-.64-.14Z"/><path class="cls-4" d="M197.79,459.36l.16.09a1.45,1.45,0,0,1-1.53,1,1.84,1.84,0,0,1-1.1-.32,2.54,2.54,0,0,1-.59-.74,6.09,6.09,0,0,1-.94.73,2.84,2.84,0,0,1-1.4.33,2.42,2.42,0,0,1-1.61-.49,1.63,1.63,0,0,1-.6-1.33,1.77,1.77,0,0,1,.49-1.28,2.09,2.09,0,0,1,.64-.46,6.86,6.86,0,0,1,1-.35,12,12,0,0,0,1.19-.34,2.47,2.47,0,0,0,.65-.33,1.17,1.17,0,0,0,.4-.5,2.17,2.17,0,0,0,.12-.8,2.49,2.49,0,0,0-.41-1.58,1.27,1.27,0,0,0-.48-.37,1.3,1.3,0,0,0-.61-.14,1.18,1.18,0,0,0-1.12.73l-.23.54a.65.65,0,0,1-.66.43.72.72,0,0,1-.53-.21.71.71,0,0,1-.22-.52c0-.32.23-.58.67-.8a4,4,0,0,1,.9-.27,5.33,5.33,0,0,1,1-.11,5.18,5.18,0,0,1,1.2.15,4.46,4.46,0,0,1,1,.38,1.5,1.5,0,0,1,.75.89,4.13,4.13,0,0,1,.07.93V458a6,6,0,0,0,.08,1.19.72.72,0,0,0,.76.65.83.83,0,0,0,.45-.1A1.86,1.86,0,0,0,197.79,459.36Zm-3.07-3.65a6.91,6.91,0,0,1-1.09.73c-.45.24-.76.42-.94.54a2.85,2.85,0,0,0-.47.45,1.92,1.92,0,0,0-.43,1.25,1.49,1.49,0,0,0,.34,1,1.08,1.08,0,0,0,.85.4,1.43,1.43,0,0,0,.85-.29,1.74,1.74,0,0,0,.61-.75,4.45,4.45,0,0,0,.28-1.8Z"/><path class="cls-4" d="M197.54,452.38h3.6v.21c-.69,0-1,.3-1,.8a6.93,6.93,0,0,0,.37,1.53l1.12,3.45,1.58-4.17a2.18,2.18,0,0,0,.19-.77q0-.8-1-.84v-.21h3.54v.21a1.52,1.52,0,0,0-.64.19.71.71,0,0,0-.29.61,3.78,3.78,0,0,0,.17.92l1.22,4.06,1.44-3.66a3.33,3.33,0,0,0,.27-1.08.92.92,0,0,0-.34-.77,1.7,1.7,0,0,0-.64-.27v-.21h2.73v.21a1.11,1.11,0,0,0-.72.25,1.79,1.79,0,0,0-.38.48,6.75,6.75,0,0,0-.43,1l-.2.47-2.2,5.5h-.33l-2-6.18-2.44,6.18h-.31l-1.85-5.6-.23-.68a2.38,2.38,0,0,0-.63-1.15,1.32,1.32,0,0,0-.58-.23Z"/><path class="cls-4" d="M211.66,458.17a1.13,1.13,0,1,1-.79.33A1.07,1.07,0,0,1,211.66,458.17Z"/><path class="cls-4" d="M221.15,458.5l.19.07a2.62,2.62,0,0,1-1,1.41,3.28,3.28,0,0,1-1.84.44,3.7,3.7,0,0,1-4-3.87,4.76,4.76,0,0,1,.29-1.61,4,4,0,0,1,.79-1.36,3.44,3.44,0,0,1,1.38-1,4.57,4.57,0,0,1,1.79-.35,3.28,3.28,0,0,1,2.1.6,1.06,1.06,0,0,1,.47.82.7.7,0,0,1-.2.5.64.64,0,0,1-.47.19c-.4,0-.7-.29-.89-.88a3.38,3.38,0,0,0-.21-.55.78.78,0,0,0-.22-.26,1.17,1.17,0,0,0-.71-.21,1.8,1.8,0,0,0-1,.3,2.59,2.59,0,0,0-.69.67,4,4,0,0,0-.49,1,5.45,5.45,0,0,0-.33,1.83,4.46,4.46,0,0,0,.3,1.61,3.62,3.62,0,0,0,.8,1.32,2.51,2.51,0,0,0,1.87.83,2.06,2.06,0,0,0,1.47-.56A2.91,2.91,0,0,0,221.15,458.5Z"/><path class="cls-4" d="M222.43,456.35a3.8,3.8,0,0,1,1.11-2.68,4.36,4.36,0,0,1,6.46,0,3.8,3.8,0,0,1,.05,5.32,4.48,4.48,0,0,1-6.56,0,4.15,4.15,0,0,1-.79-1.24A3.75,3.75,0,0,1,222.43,456.35Zm1.69-.11a5,5,0,0,0,.72,2.73,2.36,2.36,0,0,0,2,1.25,1.94,1.94,0,0,0,1-.28,2.64,2.64,0,0,0,.82-.78,4.35,4.35,0,0,0,.58-1.3,5.25,5.25,0,0,0,0-3,4.45,4.45,0,0,0-.64-1.33,2.25,2.25,0,0,0-1.86-1,2.14,2.14,0,0,0-1.8,1.1A4.52,4.52,0,0,0,224.12,456.24Z"/><path class="cls-4" d="M234.58,452.24a7.37,7.37,0,0,1,.21,1.29,4.26,4.26,0,0,1,1.31-.95,3.51,3.51,0,0,1,1.52-.34,2.3,2.3,0,0,1,1.45.45,4,4,0,0,1,.81.93,5.1,5.1,0,0,1,1.41-1,3.5,3.5,0,0,1,1.54-.34,2.63,2.63,0,0,1,1.81.61,2,2,0,0,1,.7,1.58v3.84a4.09,4.09,0,0,0,.07.92,1,1,0,0,0,.28.49,2,2,0,0,0,1,.38v.19h-4.1v-.19a2.28,2.28,0,0,0,.79-.21,1,1,0,0,0,.4-.46,2,2,0,0,0,.14-.64c0-.29,0-.7,0-1.24v-1.76a13.27,13.27,0,0,0-.06-1.5,2.51,2.51,0,0,0-.25-.8,1.56,1.56,0,0,0-1.5-.79,1.79,1.79,0,0,0-1.66.85,4.49,4.49,0,0,0-.45,2.28v2.48a4.09,4.09,0,0,0,.07.92,1,1,0,0,0,.28.49,1.9,1.9,0,0,0,1,.38v.19h-4.09v-.19a2.35,2.35,0,0,0,.79-.21,1,1,0,0,0,.39-.46,1.93,1.93,0,0,0,.15-.64c0-.29,0-.7,0-1.24V455.8a14.09,14.09,0,0,0-.07-1.58,2.33,2.33,0,0,0-.26-.82,1.4,1.4,0,0,0-.58-.52,1.72,1.72,0,0,0-.83-.19,2,2,0,0,0-1,.25,1.89,1.89,0,0,0-.73.67,2.66,2.66,0,0,0-.35.91,7.39,7.39,0,0,0-.11,1.38v2.37a4.09,4.09,0,0,0,.07.92,1,1,0,0,0,.29.49,1.89,1.89,0,0,0,1,.38v.19h-4.09v-.19a2.42,2.42,0,0,0,.8-.21,1,1,0,0,0,.39-.46,2.28,2.28,0,0,0,.14-.64c0-.28,0-.7,0-1.24v-2.28c0-.64,0-1.08,0-1.34a1.38,1.38,0,0,0-.21-.62.9.9,0,0,0-.38-.37,1.63,1.63,0,0,0-.64-.15v-.19Z"/><path class="cls-4" d="M8,387.65V394a6,6,0,0,1,.57-.61,2.59,2.59,0,0,1,.6-.39,3.44,3.44,0,0,1,1.53-.33,3.38,3.38,0,0,1,1.8.43,1.75,1.75,0,0,1,.7.79,4,4,0,0,1,.19,1.39v3.39a4,4,0,0,0,.08.92,1,1,0,0,0,.28.48,1.94,1.94,0,0,0,1,.38v.19H10.67v-.19a3.19,3.19,0,0,0,.7-.16,1.06,1.06,0,0,0,.37-.31,1.41,1.41,0,0,0,.23-.63,8.37,8.37,0,0,0,.06-1.17v-2.92a4.23,4.23,0,0,0-.1-1.05,1.77,1.77,0,0,0-.34-.67,1.65,1.65,0,0,0-1.32-.54C8.78,393,8,394.13,8,396.48v2.15a4.87,4.87,0,0,0,.07.92,1,1,0,0,0,.29.48,1.89,1.89,0,0,0,.95.38v.19H5.29v-.19a2.42,2.42,0,0,0,.79-.21,1,1,0,0,0,.39-.45,2.46,2.46,0,0,0,.14-.65c0-.28,0-.69,0-1.23v-7.23a12.51,12.51,0,0,0-.05-1.32,1.38,1.38,0,0,0-.2-.63,1,1,0,0,0-.38-.37,1.78,1.78,0,0,0-.63-.14V388Z"/><path class="cls-4" d="M17.56,392.77h2.35v.35H17.56v5.36a2.15,2.15,0,0,0,.34,1.38,1,1,0,0,0,.46.36,1.36,1.36,0,0,0,.61.13,1.22,1.22,0,0,0,.69-.17,2.38,2.38,0,0,0,.61-.62l.13.12a1.87,1.87,0,0,1-.85.82,3.07,3.07,0,0,1-1.37.27,2.37,2.37,0,0,1-1.58-.43.94.94,0,0,1-.35-.53,4.51,4.51,0,0,1-.09-1.11v-5.58h-1V393a2.53,2.53,0,0,0,1.1-.75,3.69,3.69,0,0,0,.5-.68,4.73,4.73,0,0,0,.35-.87l.09-.3h.34Z"/><path class="cls-4" d="M22.46,392.77H24.8v.35H22.46v5.36a2.22,2.22,0,0,0,.33,1.38,1.09,1.09,0,0,0,.46.36,1.44,1.44,0,0,0,.62.13,1.21,1.21,0,0,0,.68-.17,2.23,2.23,0,0,0,.61-.62l.14.12a1.92,1.92,0,0,1-.85.82,3.13,3.13,0,0,1-1.37.27,2.38,2.38,0,0,1-1.59-.43,1,1,0,0,1-.35-.53,5.29,5.29,0,0,1-.08-1.11v-5.58h-1V393a2.61,2.61,0,0,0,1.11-.75,3.61,3.61,0,0,0,.49-.68,4.73,4.73,0,0,0,.35-.87l.1-.3h.34Z"/><path class="cls-4" d="M27.79,399.83v2.32a4.15,4.15,0,0,0,.07.92,1,1,0,0,0,.29.49,1.81,1.81,0,0,0,.95.37v.19H25v-.19a2.67,2.67,0,0,0,.79-.2,1,1,0,0,0,.39-.46,1.74,1.74,0,0,0,.14-.64c0-.29,0-.7,0-1.23V395a2.53,2.53,0,0,0-.33-1.48,1.27,1.27,0,0,0-1.1-.44v-.23l2.69-.38a3.44,3.44,0,0,1,.1.81v.17a5.33,5.33,0,0,1,1.28-.65,3.89,3.89,0,0,1,1.3-.2,3.58,3.58,0,0,1,2.39.84,3.53,3.53,0,0,1,1,1.33,4.84,4.84,0,0,1,0,3.64,3.59,3.59,0,0,1-1,1.43,3.71,3.71,0,0,1-2.5.9,3.09,3.09,0,0,1-1.19-.21A4.87,4.87,0,0,1,27.79,399.83Zm0-3.06a11.52,11.52,0,0,0,.11,1.91,2.51,2.51,0,0,0,.39,1.05,2,2,0,0,0,1.53.77,2.14,2.14,0,0,0,1.7-.92,4.17,4.17,0,0,0,.68-1.31,5.54,5.54,0,0,0,.23-1.58,5.43,5.43,0,0,0-.22-1.55,4.2,4.2,0,0,0-.63-1.31,2,2,0,0,0-1.68-.94,1.89,1.89,0,0,0-.92.24,1.82,1.82,0,0,0-.69.66,2.8,2.8,0,0,0-.39,1.1A11.35,11.35,0,0,0,27.79,396.77Z"/><path class="cls-4" d="M35.49,400.6V398h.15a5,5,0,0,0,.65,1.53,2,2,0,0,0,1.65,1,1.47,1.47,0,0,0,1-.35,1.32,1.32,0,0,0,.46-1.09,1.64,1.64,0,0,0-.33-1,2.09,2.09,0,0,0-.46-.42c-.19-.13-.5-.31-.94-.55a6.2,6.2,0,0,1-1.55-1,1.92,1.92,0,0,1-.55-1.36,2,2,0,0,1,.55-1.43,2.19,2.19,0,0,1,1.69-.68,2.28,2.28,0,0,1,.87.16l.32.14a.69.69,0,0,0,.26.06c.11,0,.22-.1.33-.28h.18l.1,2.09h-.19a4.34,4.34,0,0,0-.22-.71,1.74,1.74,0,0,0-.32-.51,2,2,0,0,0-.66-.55,1.62,1.62,0,0,0-.75-.2,1.19,1.19,0,0,0-.88.37,1.28,1.28,0,0,0-.36.92,1.21,1.21,0,0,0,.33.82,2.89,2.89,0,0,0,1,.66l1,.45a3.14,3.14,0,0,1,1.3,1,2.31,2.31,0,0,1,.44,1.4,2.18,2.18,0,0,1-.63,1.6,2.46,2.46,0,0,1-1.84.74,3.45,3.45,0,0,1-1.24-.24,3.77,3.77,0,0,0-.49-.18.58.58,0,0,0-.21,0,.55.55,0,0,0-.49.28Z"/><path class="cls-4" d="M43.59,392.63a1.1,1.1,0,0,1,.79.32,1.08,1.08,0,0,1,.32.79,1.12,1.12,0,0,1-2.23,0,1.09,1.09,0,0,1,.33-.79A1.1,1.1,0,0,1,43.59,392.63Zm0,5.9a1.1,1.1,0,0,1,.79.32,1.09,1.09,0,0,1,.32.8,1.12,1.12,0,0,1-2.23,0,1.11,1.11,0,0,1,1.12-1.12Z"/><path class="cls-4" d="M45.28,402.87,51,387.45h.59l-5.67,15.42Z"/><path class="cls-4" d="M50.83,402.87l5.66-15.42h.59l-5.67,15.42Z"/><path class="cls-4" d="M56.81,392.77h3.58v.2c-.68,0-1,.3-1,.8a6.59,6.59,0,0,0,.37,1.53l1.12,3.43,1.57-4.15a2.35,2.35,0,0,0,.18-.77q0-.8-1-.84v-.2h3.53v.2a1.56,1.56,0,0,0-.63.19.69.69,0,0,0-.3.61,3.39,3.39,0,0,0,.18.91l1.21,4.05,1.43-3.64a3.54,3.54,0,0,0,.28-1.08.93.93,0,0,0-.35-.77,1.91,1.91,0,0,0-.63-.27v-.2h2.71v.2a1,1,0,0,0-.71.26,1.44,1.44,0,0,0-.38.47,7.08,7.08,0,0,0-.43.95l-.2.47-2.19,5.48h-.32l-2-6.16-2.43,6.16h-.31L58.24,395l-.22-.67a2.56,2.56,0,0,0-.63-1.15,1.32,1.32,0,0,0-.58-.23Z"/><path class="cls-4" d="M68.4,392.77H72v.2c-.69,0-1,.3-1,.8a6.59,6.59,0,0,0,.37,1.53l1.11,3.43L74,394.58a2.18,2.18,0,0,0,.19-.77q0-.8-1-.84v-.2h3.53v.2a1.56,1.56,0,0,0-.63.19.69.69,0,0,0-.3.61,3.39,3.39,0,0,0,.18.91l1.21,4.05,1.43-3.64a3.45,3.45,0,0,0,.27-1.08.92.92,0,0,0-.34-.77A1.91,1.91,0,0,0,78,393v-.2h2.71v.2a1,1,0,0,0-.71.26,1.46,1.46,0,0,0-.39.47,7.28,7.28,0,0,0-.42.95l-.2.47-2.19,5.48h-.32l-2-6.16L72,400.6h-.31L69.83,395l-.23-.67A2.48,2.48,0,0,0,69,393.2a1.37,1.37,0,0,0-.58-.23Z"/><path class="cls-4" d="M80,392.77h3.59v.2c-.69,0-1,.3-1,.8a6.94,6.94,0,0,0,.36,1.53L84,398.73l1.57-4.15a2.18,2.18,0,0,0,.19-.77q0-.8-1-.84v-.2h3.53v.2a1.68,1.68,0,0,0-.64.19.71.71,0,0,0-.29.61,3.72,3.72,0,0,0,.17.91l1.22,4.05,1.43-3.64a3.45,3.45,0,0,0,.27-1.08.9.9,0,0,0-.35-.77,1.73,1.73,0,0,0-.63-.27v-.2h2.71v.2a1.06,1.06,0,0,0-.71.26,1.58,1.58,0,0,0-.38.47,8.63,8.63,0,0,0-.43.95l-.19.47-2.19,5.48H88l-2-6.16-2.43,6.16h-.31L81.41,395l-.22-.67a2.38,2.38,0,0,0-.63-1.15A1.27,1.27,0,0,0,80,393Z"/><path class="cls-4" d="M94,398.53a1.11,1.11,0,0,1,1.12,1.12,1.12,1.12,0,0,1-1.91.79,1.1,1.1,0,0,1-.32-.79,1.13,1.13,0,0,1,.32-.8A1.1,1.1,0,0,1,94,398.53Z"/><path class="cls-4" d="M99.23,392.63a7.12,7.12,0,0,1,.21,1.28,4.26,4.26,0,0,1,1.31-1,3.57,3.57,0,0,1,1.51-.33,2.27,2.27,0,0,1,1.44.44,4.23,4.23,0,0,1,.81.93,4.83,4.83,0,0,1,1.41-1,3.56,3.56,0,0,1,1.53-.33,2.68,2.68,0,0,1,1.8.6,2,2,0,0,1,.69,1.58v3.82a4,4,0,0,0,.08.92,1,1,0,0,0,.27.48,2,2,0,0,0,1,.38v.19h-4.07v-.19a2.35,2.35,0,0,0,.79-.21,1.1,1.1,0,0,0,.39-.45,2.12,2.12,0,0,0,.14-.65c0-.28,0-.69,0-1.22v-1.76a13.06,13.06,0,0,0-.06-1.49,2.49,2.49,0,0,0-.25-.81,1.57,1.57,0,0,0-1.49-.78,1.8,1.8,0,0,0-1.66.85,4.4,4.4,0,0,0-.45,2.26v2.48a4,4,0,0,0,.08.92,1,1,0,0,0,.27.48,1.94,1.94,0,0,0,1,.38v.19h-4.07v-.19a2.35,2.35,0,0,0,.79-.21,1.1,1.1,0,0,0,.39-.45,2.46,2.46,0,0,0,.14-.65c0-.28,0-.69,0-1.22v-1.71a12.1,12.1,0,0,0-.07-1.58,2,2,0,0,0-.26-.81,1.31,1.31,0,0,0-.57-.52,1.72,1.72,0,0,0-.83-.19,2,2,0,0,0-1,.25,1.89,1.89,0,0,0-.73.67,2.58,2.58,0,0,0-.35.91,7.16,7.16,0,0,0-.11,1.36v2.37a4.87,4.87,0,0,0,.07.92,1,1,0,0,0,.29.48,1.89,1.89,0,0,0,1,.38v.19H96.6v-.19a2.42,2.42,0,0,0,.79-.21,1,1,0,0,0,.39-.45,2.47,2.47,0,0,0,.14-.64c0-.29,0-.7,0-1.24V395.6a12.74,12.74,0,0,0,0-1.33,1.38,1.38,0,0,0-.2-.62.9.9,0,0,0-.38-.37,1.57,1.57,0,0,0-.63-.15v-.19Z"/><path class="cls-4" d="M112,396.71a3.77,3.77,0,0,1,1.11-2.66,4.34,4.34,0,0,1,6.42,0,3.79,3.79,0,0,1,.06,5.3,4.48,4.48,0,0,1-6.54,0,3.94,3.94,0,0,1-.78-1.24A3.75,3.75,0,0,1,112,396.71Zm1.68-.11a4.9,4.9,0,0,0,.72,2.72,2.33,2.33,0,0,0,2,1.24,2,2,0,0,0,1-.27,2.61,2.61,0,0,0,.81-.78,4.29,4.29,0,0,0,.58-1.29,5.39,5.39,0,0,0,.22-1.5,5.09,5.09,0,0,0-.24-1.53,4.26,4.26,0,0,0-.63-1.32,2.23,2.23,0,0,0-1.85-1,2.19,2.19,0,0,0-1.8,1.1A4.54,4.54,0,0,0,113.69,396.6Z"/><path class="cls-4" d="M124.17,393.79a3.21,3.21,0,0,1,.74-.71,3.07,3.07,0,0,1,1.69-.45,3.6,3.6,0,0,1,2.44.89,3.83,3.83,0,0,1,1.29,3.09,4.05,4.05,0,0,1-1.24,3.15,3.83,3.83,0,0,1-2.74,1,4.06,4.06,0,0,1-1.48-.24l-.52-.21a1,1,0,0,0-.37-.09c-.32,0-.59.26-.83.77h-.37V390.18a2.57,2.57,0,0,0-.33-1.48,1.3,1.3,0,0,0-1.1-.44V388l2.82-.39Zm0,2.79a14.43,14.43,0,0,0,.11,1.81,4.7,4.7,0,0,0,.28,1.21,1.73,1.73,0,0,0,.63.71,1.8,1.8,0,0,0,1,.25A2.16,2.16,0,0,0,128,399.5a4.71,4.71,0,0,0,.73-2.72,5.85,5.85,0,0,0-.23-1.64,3.9,3.9,0,0,0-.69-1.33,2.46,2.46,0,0,0-.77-.68,1.72,1.72,0,0,0-.86-.24,1.66,1.66,0,0,0-1,.33,2,2,0,0,0-.68.85A6.92,6.92,0,0,0,124.17,396.58Z"/><path class="cls-4" d="M131.24,393l2.65-.33v6a4,4,0,0,0,.08.92,1,1,0,0,0,.28.48,1.94,1.94,0,0,0,1,.38v.19h-4.07v-.19a2.35,2.35,0,0,0,.79-.21,1,1,0,0,0,.39-.45,2,2,0,0,0,.14-.64c0-.29,0-.7,0-1.23v-2.27c0-.63,0-1.07,0-1.33a1.34,1.34,0,0,0-.21-.61.88.88,0,0,0-.37-.37,1.63,1.63,0,0,0-.64-.15Zm1.92-3.64a.85.85,0,0,1-.6-.23.82.82,0,0,1-.23-.58.78.78,0,0,1,.24-.58.86.86,0,0,1,1.19,0,.82.82,0,0,1,0,1.16A.85.85,0,0,1,133.16,389.32Z"/><path class="cls-4" d="M135.81,388l2.66-.33v11a4.15,4.15,0,0,0,.07.92.92.92,0,0,0,.29.48,1.85,1.85,0,0,0,.95.38v.19h-4.08v-.19a2.35,2.35,0,0,0,.79-.21,1,1,0,0,0,.39-.45,1.86,1.86,0,0,0,.14-.65,12.16,12.16,0,0,0,.05-1.23v-7.23a12.51,12.51,0,0,0-.05-1.32,1.51,1.51,0,0,0-.2-.63,1,1,0,0,0-.38-.37,1.85,1.85,0,0,0-.64-.14Z"/><path class="cls-4" d="M142.24,395.59c0,.3,0,.52,0,.65a5.52,5.52,0,0,0,.23,1.57,3.88,3.88,0,0,0,.64,1.27,3,3,0,0,0,1,.81,2.86,2.86,0,0,0,1.28.3,2.7,2.7,0,0,0,.94-.17,1.9,1.9,0,0,0,.74-.46,2.66,2.66,0,0,0,.57-1l.19.06a2.6,2.6,0,0,1-1,1.63,3.67,3.67,0,0,1-2.1.55,4.78,4.78,0,0,1-1.95-.36,3.48,3.48,0,0,1-1.37-1.11,4.15,4.15,0,0,1-.78-2.56,3.94,3.94,0,0,1,1.48-3.26,3.85,3.85,0,0,1,2.46-.85,3.45,3.45,0,0,1,1.37.26,2.87,2.87,0,0,1,1.06.76,2.84,2.84,0,0,1,.67,1.94Zm4-.36a3.64,3.64,0,0,0-.34-1.42,2.08,2.08,0,0,0-.66-.72,1.67,1.67,0,0,0-.88-.26,1.78,1.78,0,0,0-1.38.68,3.08,3.08,0,0,0-.71,1.72Z"/><path class="cls-4" d="M155.48,400.91a5,5,0,0,1-.09-1,5.59,5.59,0,0,1-1.28.63,4.15,4.15,0,0,1-1.29.2,3.58,3.58,0,0,1-2.4-.84,3.53,3.53,0,0,1-1-1.34,4.47,4.47,0,0,1-.34-1.77,4.79,4.79,0,0,1,.36-1.87,3.82,3.82,0,0,1,1-1.44,3.72,3.72,0,0,1,2.49-.88,3.11,3.11,0,0,1,1.2.2,4.83,4.83,0,0,1,1.16.74v-3.41a2.35,2.35,0,0,0-.34-1.44,1.27,1.27,0,0,0-1.1-.44v-.23l2.83-.36v10.67a2.56,2.56,0,0,0,.33,1.49,1.3,1.3,0,0,0,1.1.44v.23Zm-.12-4.29a12.62,12.62,0,0,0-.11-1.92,2.65,2.65,0,0,0-.4-1.05,1.77,1.77,0,0,0-.67-.56,1.84,1.84,0,0,0-.85-.21,2.07,2.07,0,0,0-1.7.92,4.33,4.33,0,0,0-.68,1.32,5.2,5.2,0,0,0-.24,1.57,5.51,5.51,0,0,0,.23,1.56,4.36,4.36,0,0,0,.62,1.3,2,2,0,0,0,1.69.94,1.85,1.85,0,0,0,.91-.24,1.93,1.93,0,0,0,.7-.66,3.23,3.23,0,0,0,.39-1.1A12.33,12.33,0,0,0,155.36,396.62Z"/><path class="cls-4" d="M158.79,393l2.65-.33v6a4.15,4.15,0,0,0,.07.92,1,1,0,0,0,.29.48,1.89,1.89,0,0,0,.95.38v.19h-4.08v-.19a2.42,2.42,0,0,0,.8-.21.9.9,0,0,0,.38-.45,2,2,0,0,0,.15-.64c0-.29,0-.7,0-1.23v-2.27a12.89,12.89,0,0,0-.05-1.33,1.46,1.46,0,0,0-.2-.61.89.89,0,0,0-.38-.37,1.62,1.62,0,0,0-.63-.15Zm1.92-3.64a.85.85,0,0,1-.6-.23.82.82,0,0,1,0-1.16.86.86,0,0,1,1.19,0,.82.82,0,0,1,0,1.16A.81.81,0,0,1,160.71,389.32Z"/><path class="cls-4" d="M163.89,400.6V398H164a5.25,5.25,0,0,0,.64,1.53,2,2,0,0,0,1.66,1,1.47,1.47,0,0,0,1-.35,1.32,1.32,0,0,0,.46-1.09,1.64,1.64,0,0,0-.33-1,2.16,2.16,0,0,0-.47-.42,10.48,10.48,0,0,0-.94-.55,6.29,6.29,0,0,1-1.54-1,1.92,1.92,0,0,1-.55-1.36,2,2,0,0,1,.55-1.43,2.18,2.18,0,0,1,1.69-.68,2.28,2.28,0,0,1,.87.16l.32.14a.65.65,0,0,0,.25.06c.12,0,.23-.1.34-.28h.18l.1,2.09h-.19a4.34,4.34,0,0,0-.22-.71,1.74,1.74,0,0,0-.32-.51,2.17,2.17,0,0,0-.67-.55,1.61,1.61,0,0,0-.74-.2,1.18,1.18,0,0,0-.88.37,1.28,1.28,0,0,0-.36.92,1.21,1.21,0,0,0,.33.82,2.89,2.89,0,0,0,1,.66l1,.45a3.21,3.21,0,0,1,1.3,1,2.3,2.3,0,0,1,.43,1.4,2.17,2.17,0,0,1-.62,1.6,2.49,2.49,0,0,1-1.85.74,3.44,3.44,0,0,1-1.23-.24,3.77,3.77,0,0,0-.49-.18.66.66,0,0,0-.21,0,.54.54,0,0,0-.49.28Z"/><path class="cls-4" d="M177.82,399.71l.16.09a1.44,1.44,0,0,1-1.52,1,1.75,1.75,0,0,1-1.09-.33,2.34,2.34,0,0,1-.59-.73,5.7,5.7,0,0,1-.94.72,2.73,2.73,0,0,1-1.39.34,2.49,2.49,0,0,1-1.61-.49,1.62,1.62,0,0,1-.6-1.32,1.81,1.81,0,0,1,.49-1.28,2.42,2.42,0,0,1,.64-.46,6,6,0,0,1,1-.34c.53-.14.93-.25,1.18-.34a2.82,2.82,0,0,0,.65-.34,1.09,1.09,0,0,0,.4-.49,2.4,2.4,0,0,0,.11-.8,2.46,2.46,0,0,0-.4-1.57,1.35,1.35,0,0,0-.48-.37,1.39,1.39,0,0,0-.6-.14,1.22,1.22,0,0,0-.68.19,1.24,1.24,0,0,0-.44.54l-.23.53a.66.66,0,0,1-.66.44.72.72,0,0,1-.53-.21.7.7,0,0,1-.21-.52c0-.32.22-.58.67-.8a3.93,3.93,0,0,1,.89-.27,5.31,5.31,0,0,1,1-.1,5.66,5.66,0,0,1,1.19.14,4.37,4.37,0,0,1,1,.38,1.47,1.47,0,0,1,.75.89,4,4,0,0,1,.07.93v3.41a5.9,5.9,0,0,0,.08,1.18.72.72,0,0,0,.75.65.83.83,0,0,0,.45-.1A1.64,1.64,0,0,0,177.82,399.71Zm-3-3.64a6.28,6.28,0,0,1-1.09.73,7.8,7.8,0,0,0-.93.55,2.43,2.43,0,0,0-.47.44,1.91,1.91,0,0,0-.43,1.24,1.53,1.53,0,0,0,.33,1,1.09,1.09,0,0,0,.85.39,1.42,1.42,0,0,0,.85-.28,1.68,1.68,0,0,0,.61-.75,4.61,4.61,0,0,0,.28-1.79Z"/><path class="cls-4" d="M180.69,393.79a3.41,3.41,0,0,1,.73-.71,3.13,3.13,0,0,1,1.7-.45,3.62,3.62,0,0,1,2.44.89,3.83,3.83,0,0,1,1.29,3.09,4.09,4.09,0,0,1-1.24,3.15,3.83,3.83,0,0,1-2.74,1,4,4,0,0,1-1.48-.24l-.52-.21a1,1,0,0,0-.38-.09c-.31,0-.59.26-.82.77h-.37V390.18a2.57,2.57,0,0,0-.33-1.48,1.3,1.3,0,0,0-1.1-.44V388l2.82-.39Zm0,2.79a14.43,14.43,0,0,0,.11,1.81,4.7,4.7,0,0,0,.28,1.21,1.66,1.66,0,0,0,.63.71,1.8,1.8,0,0,0,.95.25,2.16,2.16,0,0,0,1.85-1.06,4.71,4.71,0,0,0,.73-2.72,5.51,5.51,0,0,0-.24-1.64,3.89,3.89,0,0,0-.68-1.33,2.46,2.46,0,0,0-.77-.68,1.72,1.72,0,0,0-.86-.24,1.66,1.66,0,0,0-1,.33,2,2,0,0,0-.68.85A6.92,6.92,0,0,0,180.69,396.58Z"/><path class="cls-4" d="M187.76,393l2.65-.33v6a4,4,0,0,0,.08.92,1,1,0,0,0,.28.48,1.89,1.89,0,0,0,.95.38v.19h-4.07v-.19a2.35,2.35,0,0,0,.79-.21,1,1,0,0,0,.39-.45,2,2,0,0,0,.14-.64c0-.29,0-.7,0-1.23v-2.27c0-.63,0-1.07,0-1.33a1.34,1.34,0,0,0-.21-.61.88.88,0,0,0-.37-.37,1.63,1.63,0,0,0-.64-.15Zm1.92-3.64a.85.85,0,0,1-.6-.23.82.82,0,0,1-.23-.58.78.78,0,0,1,.24-.58.81.81,0,0,1,.59-.24.79.79,0,0,1,.59.24.76.76,0,0,1,.25.58.78.78,0,0,1-.24.58A.85.85,0,0,1,189.68,389.32Z"/><path class="cls-4" d="M192.33,388l2.66-.33v11a4.15,4.15,0,0,0,.07.92.92.92,0,0,0,.29.48,1.85,1.85,0,0,0,.94.38v.19h-4.07v-.19a2.35,2.35,0,0,0,.79-.21,1,1,0,0,0,.39-.45,1.86,1.86,0,0,0,.14-.65c0-.28,0-.69,0-1.23v-7.23c0-.63,0-1.07,0-1.32a1.51,1.51,0,0,0-.2-.63,1,1,0,0,0-.38-.37,1.85,1.85,0,0,0-.64-.14Z"/><path class="cls-4" d="M196.9,393l2.66-.33v6a4.15,4.15,0,0,0,.07.92,1,1,0,0,0,.29.48,1.89,1.89,0,0,0,.95.38v.19H196.8v-.19a2.42,2.42,0,0,0,.8-.21,1,1,0,0,0,.38-.45,2,2,0,0,0,.15-.64c0-.29,0-.7,0-1.23v-2.27a12.89,12.89,0,0,0,0-1.33,1.46,1.46,0,0,0-.2-.61.89.89,0,0,0-.38-.37,1.63,1.63,0,0,0-.64-.15Zm1.93-3.64a.83.83,0,0,1-.6-.23.82.82,0,0,1,0-1.16.86.86,0,0,1,1.19,0,.82.82,0,0,1,0,1.16A.81.81,0,0,1,198.83,389.32Z"/><path class="cls-4" d="M203.76,392.77h2.34v.35h-2.34v5.36a2.22,2.22,0,0,0,.33,1.38,1.09,1.09,0,0,0,.46.36,1.44,1.44,0,0,0,.62.13,1.26,1.26,0,0,0,.69-.17,2.37,2.37,0,0,0,.6-.62l.14.12a1.92,1.92,0,0,1-.85.82,3.1,3.1,0,0,1-1.37.27,2.42,2.42,0,0,1-1.59-.43,1.06,1.06,0,0,1-.35-.53,5.29,5.29,0,0,1-.08-1.11v-5.58h-1V393a2.61,2.61,0,0,0,1.11-.75,3.21,3.21,0,0,0,.49-.68,4.08,4.08,0,0,0,.36-.87l.09-.3h.34Z"/><path class="cls-4" d="M206,392.77h3.58v.2a1.35,1.35,0,0,0-.54.15.66.66,0,0,0-.36.62,4.31,4.31,0,0,0,.37,1.32l1.54,3.95,1.35-3.33a5.76,5.76,0,0,0,.5-1.75.93.93,0,0,0-.23-.66,1,1,0,0,0-.68-.3v-.2h2.64v.2a2.09,2.09,0,0,0-.58.23,1.22,1.22,0,0,0-.37.38,13.13,13.13,0,0,0-.85,1.81l-2.67,6.49a6.75,6.75,0,0,1-.77,1.51,1.61,1.61,0,0,1-1.27.58,1.54,1.54,0,0,1-.79-.18.56.56,0,0,1-.29-.5.46.46,0,0,1,.17-.38.68.68,0,0,1,.46-.14,1.4,1.4,0,0,1,.55.13,2.84,2.84,0,0,0,.39.14.66.66,0,0,0,.21,0c.38,0,.69-.29.93-.86l.28-.7a2.12,2.12,0,0,0,.19-.69,3.91,3.91,0,0,0-.35-1.19L207.49,395l-.28-.66a7.31,7.31,0,0,0-.39-.84,1.12,1.12,0,0,0-.27-.36A1.06,1.06,0,0,0,206,393Z"/><path class="cls-4" d="M214.26,388l2.66-.33v11a4.15,4.15,0,0,0,.07.92.92.92,0,0,0,.29.48,1.85,1.85,0,0,0,1,.38v.19h-4.08v-.19a2.35,2.35,0,0,0,.79-.21,1,1,0,0,0,.39-.45,1.86,1.86,0,0,0,.14-.65,12.16,12.16,0,0,0,.05-1.23v-7.23a12.51,12.51,0,0,0-.05-1.32,1.51,1.51,0,0,0-.2-.63,1,1,0,0,0-.38-.37,1.85,1.85,0,0,0-.64-.14Z"/><path class="cls-4" d="M226.62,399.71l.16.09a1.44,1.44,0,0,1-1.52,1,1.75,1.75,0,0,1-1.09-.33,2.34,2.34,0,0,1-.59-.73,5.34,5.34,0,0,1-.93.72,2.77,2.77,0,0,1-1.4.34,2.51,2.51,0,0,1-1.61-.49,1.65,1.65,0,0,1-.59-1.32,1.77,1.77,0,0,1,.49-1.28,2.22,2.22,0,0,1,.63-.46,6,6,0,0,1,1-.34c.54-.14.93-.25,1.19-.34a2.74,2.74,0,0,0,.64-.34,1,1,0,0,0,.4-.49,2.16,2.16,0,0,0,.11-.8,2.46,2.46,0,0,0-.4-1.57,1.19,1.19,0,0,0-.48-.37,1.39,1.39,0,0,0-.6-.14,1.17,1.17,0,0,0-.67.19,1.12,1.12,0,0,0-.44.54l-.24.53a.66.66,0,0,1-.66.44.7.7,0,0,1-.52-.21.67.67,0,0,1-.22-.52c0-.32.22-.58.67-.8a4.1,4.1,0,0,1,.89-.27,5.31,5.31,0,0,1,1-.1,5.59,5.59,0,0,1,1.19.14,4.21,4.21,0,0,1,1,.38,1.47,1.47,0,0,1,.75.89,3.87,3.87,0,0,1,.08.93v3.41a6.15,6.15,0,0,0,.07,1.18.73.73,0,0,0,.76.65.8.8,0,0,0,.44-.1A1.47,1.47,0,0,0,226.62,399.71Zm-3.05-3.64a5.92,5.92,0,0,1-1.09.73,7.8,7.8,0,0,0-.93.55,2.43,2.43,0,0,0-.47.44,2,2,0,0,0-.43,1.24,1.49,1.49,0,0,0,.34,1,1.06,1.06,0,0,0,.85.39,1.44,1.44,0,0,0,.85-.28,1.73,1.73,0,0,0,.6-.75,4.43,4.43,0,0,0,.28-1.79Z"/><path class="cls-4" d="M226.38,392.77H230v.2c-.69,0-1,.3-1,.8a6.59,6.59,0,0,0,.37,1.53l1.11,3.43,1.58-4.15a2.35,2.35,0,0,0,.18-.77q0-.8-1-.84v-.2h3.53v.2a1.56,1.56,0,0,0-.63.19.69.69,0,0,0-.3.61,3.39,3.39,0,0,0,.18.91l1.21,4.05,1.43-3.64a3.45,3.45,0,0,0,.27-1.08.92.92,0,0,0-.34-.77,1.91,1.91,0,0,0-.63-.27v-.2h2.71v.2a1,1,0,0,0-.71.26,1.46,1.46,0,0,0-.39.47,7.28,7.28,0,0,0-.42.95l-.2.47-2.19,5.48h-.32l-2-6.16L230,400.6h-.31L227.81,395l-.23-.67a2.48,2.48,0,0,0-.62-1.15,1.37,1.37,0,0,0-.58-.23Z"/><path class="cls-4" d="M238.1,392.77h3.58v.2a1.47,1.47,0,0,0-.55.15.67.67,0,0,0-.35.62,4.31,4.31,0,0,0,.37,1.32l1.54,3.95,1.35-3.33a5.76,5.76,0,0,0,.5-1.75.93.93,0,0,0-.23-.66,1,1,0,0,0-.68-.3v-.2h2.64v.2a2.33,2.33,0,0,0-.59.23,1.33,1.33,0,0,0-.36.38,13.13,13.13,0,0,0-.85,1.81l-2.67,6.49a6.25,6.25,0,0,1-.78,1.51,1.57,1.57,0,0,1-1.26.58,1.54,1.54,0,0,1-.79-.18.57.57,0,0,1-.3-.5.46.46,0,0,1,.18-.38.67.67,0,0,1,.46-.14,1.4,1.4,0,0,1,.55.13,2.84,2.84,0,0,0,.39.14.66.66,0,0,0,.21,0c.38,0,.69-.29.93-.86l.28-.7a2.05,2.05,0,0,0,.18-.69,3.8,3.8,0,0,0-.34-1.19L239.59,395l-.27-.66q-.25-.6-.39-.84a1,1,0,0,0-.83-.57Z"/><path class="cls-4" d="M248.22,395.59c0,.3,0,.52,0,.65a5.52,5.52,0,0,0,.23,1.57,3.88,3.88,0,0,0,.64,1.27,3,3,0,0,0,1,.81,2.91,2.91,0,0,0,1.29.3,2.7,2.7,0,0,0,.94-.17,2.06,2.06,0,0,0,.74-.46,2.66,2.66,0,0,0,.57-1l.19.06a2.57,2.57,0,0,1-1,1.63,3.62,3.62,0,0,1-2.09.55,4.78,4.78,0,0,1-1.95-.36,3.41,3.41,0,0,1-1.37-1.11,4.09,4.09,0,0,1-.79-2.56,4,4,0,0,1,1.49-3.26,3.85,3.85,0,0,1,2.46-.85,3.4,3.4,0,0,1,1.36.26,2.79,2.79,0,0,1,1.06.76,2.85,2.85,0,0,1,.68,1.94Zm4-.36a3.32,3.32,0,0,0-.34-1.42,1.91,1.91,0,0,0-.66-.72,1.64,1.64,0,0,0-.88-.26,1.81,1.81,0,0,0-1.38.68,3.07,3.07,0,0,0-.7,1.72Z"/><path class="cls-4" d="M257.41,394a2.85,2.85,0,0,1,.75-.87,2.94,2.94,0,0,1,1.74-.54,1.44,1.44,0,0,1,.92.26.74.74,0,0,1,.28.59.56.56,0,0,1-.17.43.6.6,0,0,1-.44.16.67.67,0,0,1-.54-.26l-.29-.31a1.05,1.05,0,0,0-.8-.36c-.42,0-.74.27-1,.81a5.91,5.91,0,0,0-.35,2.26v2.42a4,4,0,0,0,.08.92,1,1,0,0,0,.28.48,1.94,1.94,0,0,0,1,.38v.19h-4.07v-.19a2.35,2.35,0,0,0,.79-.21,1,1,0,0,0,.39-.45,2,2,0,0,0,.14-.64c0-.29,0-.7,0-1.23v-2.27c0-.63,0-1.07,0-1.33a1.34,1.34,0,0,0-.21-.61.88.88,0,0,0-.37-.37,1.63,1.63,0,0,0-.64-.15V393l2.38-.33A8.07,8.07,0,0,1,257.41,394Z"/><path class="cls-4" d="M263.4,398.53a1.09,1.09,0,0,1,1.11,1.12,1.1,1.1,0,0,1-.32.79,1.09,1.09,0,0,1-.79.33,1.13,1.13,0,0,1-1.12-1.12,1.11,1.11,0,0,1,1.12-1.12Z"/><path class="cls-4" d="M272.85,398.86l.18.06a2.52,2.52,0,0,1-1,1.41,3.29,3.29,0,0,1-1.82.44,3.69,3.69,0,0,1-4-3.86,4.7,4.7,0,0,1,.29-1.6,4.21,4.21,0,0,1,.78-1.36,3.78,3.78,0,0,1,1.38-1,4.57,4.57,0,0,1,1.79-.34,3.29,3.29,0,0,1,2.09.6,1,1,0,0,1,.46.81.71.71,0,0,1-.19.49.65.65,0,0,1-.47.2c-.4,0-.7-.29-.89-.88a3.38,3.38,0,0,0-.21-.55.77.77,0,0,0-.22-.26,1.14,1.14,0,0,0-.7-.21,1.78,1.78,0,0,0-1,.3,2.59,2.59,0,0,0-.69.67,4.53,4.53,0,0,0-.49,1,5.69,5.69,0,0,0-.32,1.83,4.66,4.66,0,0,0,.29,1.6,4,4,0,0,0,.8,1.31,2.51,2.51,0,0,0,1.86.83,2.06,2.06,0,0,0,1.47-.56A3.14,3.14,0,0,0,272.85,398.86Z"/><path class="cls-4" d="M274.12,396.71a3.77,3.77,0,0,1,1.11-2.66,4.34,4.34,0,0,1,6.42,0,3.79,3.79,0,0,1,.06,5.3,4.48,4.48,0,0,1-6.54,0,3.94,3.94,0,0,1-.78-1.24A3.75,3.75,0,0,1,274.12,396.71Zm1.68-.11a4.9,4.9,0,0,0,.72,2.72,2.33,2.33,0,0,0,2,1.24,2,2,0,0,0,1-.27,2.61,2.61,0,0,0,.81-.78,4.29,4.29,0,0,0,.58-1.29,5.39,5.39,0,0,0,.22-1.5,5.09,5.09,0,0,0-.24-1.53,4.26,4.26,0,0,0-.63-1.32,2.23,2.23,0,0,0-1.85-1,2.18,2.18,0,0,0-1.8,1.1A4.54,4.54,0,0,0,275.8,396.6Z"/><path class="cls-4" d="M286.21,392.63a8.16,8.16,0,0,1,.22,1.28,4.11,4.11,0,0,1,1.3-1,3.57,3.57,0,0,1,1.51-.33,2.25,2.25,0,0,1,1.44.44,4,4,0,0,1,.81.93,4.83,4.83,0,0,1,1.41-1,3.56,3.56,0,0,1,1.53-.33,2.66,2.66,0,0,1,1.8.6,2,2,0,0,1,.7,1.58v3.82a4,4,0,0,0,.08.92,1,1,0,0,0,.28.48,1.89,1.89,0,0,0,.95.38v.19h-4.07v-.19a2.35,2.35,0,0,0,.79-.21,1.1,1.1,0,0,0,.39-.45,2.12,2.12,0,0,0,.14-.65c0-.28,0-.69,0-1.22v-1.76a13.06,13.06,0,0,0-.06-1.49,2.27,2.27,0,0,0-.25-.81,1.56,1.56,0,0,0-1.49-.78,1.77,1.77,0,0,0-1.65.85,4.39,4.39,0,0,0-.46,2.26v2.48a4,4,0,0,0,.08.92,1,1,0,0,0,.27.48,2,2,0,0,0,1,.38v.19h-4.07v-.19a2.35,2.35,0,0,0,.79-.21,1.1,1.1,0,0,0,.39-.45,2.12,2.12,0,0,0,.14-.65c0-.28,0-.69,0-1.22v-1.71a12.1,12.1,0,0,0-.07-1.58,2,2,0,0,0-.26-.81,1.31,1.31,0,0,0-.57-.52,1.72,1.72,0,0,0-.83-.19,2,2,0,0,0-1,.25,1.89,1.89,0,0,0-.73.67,2.58,2.58,0,0,0-.35.91,7.16,7.16,0,0,0-.11,1.36v2.37a4,4,0,0,0,.08.92,1,1,0,0,0,.28.48,1.89,1.89,0,0,0,.95.38v.19h-4.07v-.19a2.35,2.35,0,0,0,.79-.21,1,1,0,0,0,.39-.45,2.47,2.47,0,0,0,.14-.64c0-.29,0-.7,0-1.24V395.6c0-.63,0-1.08,0-1.33a1.51,1.51,0,0,0-.21-.62.9.9,0,0,0-.38-.37,1.53,1.53,0,0,0-.63-.15v-.19Z"/><text class="cls-5" transform="translate(67.81 504.35)">ZERO FEES UNLESS WE WIN.</text><text class="cls-5" transform="translate(53.92 524.05)">WE PAY FOR MEDICAL RECORDS.</text><text class="cls-5" transform="translate(32.01 545.07)">SERVING CLIENTS IN AL, FL, MS, AND LA </text><text class="cls-6" transform="translate(6.71 577.39)">No representation is made that the quality of legal services to <tspan x="12.07" y="14.4">be performed is greater than the quality of legal services </tspan><tspan x="78.35" y="28.8">performed by other lawyers.</tspan></text><text class="cls-6" transform="translate(62.36 50.04)">HELPING DISABILITY CLIENTS</text></g></g></svg>